<svg width="396" height="323" viewBox="0 0 396 323" fill="none" xmlns="http://www.w3.org/2000/svg">
<path d="M83.2012 235.263H57.8303L56.8726 228.127H84.0823L83.2012 235.263ZM58.6731 234.305H82.3584L83.0288 229.085H58.0027L58.6731 234.305Z" fill="#DBDBDB"/>
<path d="M120.563 257.61L121.885 267.035L124.547 285.981H129.758V257.61H120.563Z" fill="#EBEBEB"/>
<path d="M120.563 257.61L121.885 267.035H129.758V257.61H120.563Z" fill="#DBDBDB"/>
<g opacity="0.2">
<path opacity="0.2" d="M376.417 138.578H363.267L339.927 115.235V102.084L376.417 138.578Z" fill="#EBEBEB"/>
<path opacity="0.2" d="M354.81 138.578H353.364L339.927 125.139V123.693L354.81 138.578Z" fill="#EBEBEB"/>
</g>
<path d="M0.116089 280.003L49.5936 279.773L99.0711 279.687L198.017 279.533L296.962 279.687L346.439 279.773L395.917 280.003L346.439 280.242L296.962 280.328L198.017 280.482L99.0711 280.328L49.5936 280.242L0.116089 280.003Z" fill="#263238"/>
<path d="M198 321.808C267.409 321.808 323.677 312.47 323.677 300.95C323.677 289.431 267.409 280.092 198 280.092C128.591 280.092 72.3234 289.431 72.3234 300.95C72.3234 312.47 128.591 321.808 198 321.808Z" fill="#EBEBEB"/>
<path d="M125.227 193.606C125.227 193.606 130.974 160.081 133.349 153.463C135.015 148.894 141.835 137.371 146.71 128.827C147.667 127.103 153.969 122.927 156.986 121.327C161.047 119.181 168.7 122.639 169.255 131.471C169.485 135.139 163.24 139.325 161.497 143.185C159.045 148.606 158.883 155.637 158.681 156.786C158.337 158.702 171.87 173.702 171.276 179.411C170.682 185.12 154.994 204.708 151.594 205.838C148.194 206.968 125.333 199.133 125.227 193.606Z" fill="#FFCC00"/>
<path d="M153.107 135.829C156.163 138.08 161.047 139.421 163.643 140.034C166.104 137.112 169.389 134.162 169.226 131.471C168.671 122.639 161.028 119.181 156.967 121.327C154.142 122.887 151.442 124.664 148.893 126.643C148.893 126.643 148.759 132.63 153.107 135.829Z" fill="#EBEBEB"/>
<path d="M165.788 123.434C165.846 123.434 165.913 123.492 165.865 123.54C164.505 124.813 163.193 126.154 161.957 127.562C160.731 128.731 159.921 130.268 159.649 131.94C159.643 131.957 159.632 131.971 159.617 131.982C159.603 131.992 159.585 131.998 159.567 131.998C159.55 131.998 159.532 131.992 159.517 131.982C159.503 131.971 159.492 131.957 159.486 131.94C159.432 130.199 159.939 128.486 160.932 127.055C162.149 125.359 164.007 124.411 165.788 123.434Z" fill="#263238"/>
<path d="M161.622 120.35C161.628 120.345 161.635 120.341 161.643 120.339C161.651 120.337 161.659 120.336 161.667 120.337C161.675 120.338 161.683 120.34 161.69 120.344C161.697 120.348 161.703 120.353 161.708 120.359C161.713 120.366 161.717 120.373 161.719 120.381C161.721 120.388 161.722 120.397 161.721 120.405C161.72 120.413 161.718 120.42 161.714 120.427C161.71 120.434 161.705 120.441 161.698 120.446C160.433 121.724 159.25 123.08 158.155 124.507C157.197 125.704 155.54 127.467 156.239 129.114C156.354 129.402 156.239 129.43 156.019 129.181C154.985 127.63 156.019 125.647 156.977 124.325C158.203 122.665 159.792 121.305 161.622 120.35V120.35Z" fill="#263238"/>
<path opacity="0.1" d="M151.623 205.838C155.023 204.708 170.701 185.12 171.295 179.411C171.745 175.053 163.968 165.302 160.415 160.062L130.983 162.936C128.378 175.158 125.237 193.587 125.237 193.587C125.333 199.133 148.213 206.959 151.623 205.838Z" fill="black"/>
<path d="M70.0032 205.761C70.0032 205.761 41.4335 203.204 40.4183 205.244C39.7478 206.575 46.0498 223.596 49.6318 229.238C53.2138 234.88 76.2286 256.575 82.3104 261.355L70.0032 205.761Z" fill="#FFCC00"/>
<path opacity="0.1" d="M58.357 229.018C60.7897 232.849 72.0528 243.558 79.8585 250.263L70.6353 208.644C63.4905 207.687 48.8273 205.962 48.2144 207.361C47.6493 208.568 54.9186 223.606 58.357 229.018Z" fill="black"/>
<path d="M97.4525 174.593C97.4525 173.884 91.1409 153.214 100.489 140.35C102.212 137.965 133.665 167.112 133.665 167.112L97.4525 174.593Z" fill="#FFCC00"/>
<path opacity="0.1" d="M103.381 173.357L132.391 167.371C129.365 164.574 107.212 144.248 105.9 146.039C98.889 155.695 102.787 170.819 103.381 173.357Z" fill="black"/>
<path d="M184.522 205.579C184.522 205.579 174.341 178.501 156.747 165.426C154.554 163.807 112.173 165.254 103.745 167.342C101.35 167.936 73.6714 193.089 65.7699 209.315C64.4099 212.006 70.8268 241.786 81.1706 259.535C83.7278 263.931 129.681 303.519 159.706 310.215C165.376 311.479 237.15 309.257 254.39 297.322C271.629 285.387 301.703 242.236 303.542 230.177C305.38 218.118 262.473 181.652 247.887 181.652C233.3 181.652 184.522 205.579 184.522 205.579Z" fill="#FFCC00"/>
<path d="M119.395 173.252C122.852 168.051 129.777 168.884 135.849 172.917C140.752 176.183 143.721 182.601 140.408 187.591C137.094 192.581 129.144 191.748 124.528 188.683C119.912 185.618 115.65 178.894 119.395 173.252Z" fill="#263238"/>
<path d="M120.333 174.593C123.58 169.708 130.093 170.493 135.801 174.277C140.417 177.352 143.204 183.386 140.082 188.079C136.96 192.773 129.547 191.988 125.16 189.104C120.774 186.221 116.809 179.899 120.333 174.593Z" fill="white"/>
<path d="M125.017 176.566C127.555 172.735 132.679 173.357 137.123 176.327C140.733 178.731 142.917 183.453 140.475 187.122C138.032 190.79 132.19 190.187 128.79 187.926C125.39 185.666 122.249 180.694 125.017 176.566Z" fill="#263238"/>
<path d="M121.396 177.907C122.555 176.173 124.873 176.451 126.894 177.802C128.541 178.884 129.528 181.03 128.417 182.706C127.306 184.382 124.653 184.095 123.12 183.07C121.588 182.045 120.103 179.794 121.396 177.907Z" fill="white"/>
<path d="M96.1786 209.564C90.2118 215.081 91.4473 222.428 96.3989 227.763C97.5203 228.925 98.8613 229.852 100.344 230.492C101.827 231.131 103.422 231.469 105.036 231.487C106.651 231.505 108.253 231.202 109.749 230.595C111.245 229.989 112.607 229.091 113.753 227.955C119.5 222.658 118.207 214.181 114.443 210.12C113.289 208.869 111.898 207.861 110.35 207.155C108.801 206.448 107.128 206.058 105.427 206.006C103.727 205.954 102.033 206.242 100.445 206.853C98.8565 207.464 97.4062 208.386 96.1786 209.564Z" fill="#263238"/>
<path d="M97.7877 210.148C92.1848 215.34 93.3437 222.246 97.9888 227.275C99.0451 228.358 100.305 229.221 101.696 229.816C103.087 230.411 104.581 230.726 106.094 230.742C107.607 230.758 109.108 230.475 110.511 229.91C111.914 229.344 113.192 228.507 114.271 227.447C119.653 222.466 118.456 214.506 114.922 210.685C113.837 209.516 112.531 208.574 111.08 207.913C109.629 207.253 108.061 206.887 106.467 206.837C104.873 206.787 103.285 207.054 101.795 207.622C100.305 208.191 98.9433 209.049 97.7877 210.148V210.148Z" fill="white"/>
<path d="M102.241 212.323C97.8452 216.384 98.7551 221.786 102.395 225.732C103.22 226.589 104.207 227.272 105.299 227.743C106.391 228.214 107.566 228.463 108.755 228.475C109.944 228.488 111.123 228.264 112.225 227.816C113.326 227.368 114.328 226.705 115.171 225.867C119.375 221.968 118.446 215.742 115.679 212.744C114.83 211.824 113.806 211.083 112.668 210.563C111.53 210.043 110.299 209.755 109.048 209.716C107.797 209.676 106.551 209.887 105.383 210.334C104.214 210.782 103.146 211.458 102.241 212.323V212.323Z" fill="#263238"/>
<path d="M97.2705 215.024C95.2784 216.863 95.6902 219.315 97.3375 221.106C97.7132 221.494 98.1621 221.803 98.6581 222.016C99.1542 222.229 99.6877 222.342 100.228 222.347C100.767 222.352 101.303 222.251 101.803 222.047C102.303 221.844 102.758 221.544 103.142 221.163C103.932 220.387 104.395 219.337 104.438 218.23C104.481 217.123 104.099 216.041 103.371 215.206C102.985 214.789 102.52 214.453 102.003 214.218C101.486 213.983 100.927 213.853 100.359 213.836C99.7912 213.819 99.2257 213.916 98.6955 214.12C98.1652 214.323 97.6808 214.631 97.2705 215.024V215.024Z" fill="white"/>
<path d="M120.371 201.01C120.965 201.355 125.4 199.593 125.677 199.219C125.955 198.846 126.424 194.037 125.946 193.539C125.467 193.041 123.005 195.943 122.431 196.719C121.856 197.495 119.787 200.685 120.371 201.01Z" fill="#263238"/>
<path d="M131.606 193.989C131.983 195.083 132.303 196.195 132.564 197.323C132.694 197.859 132.762 198.409 132.765 198.961C132.776 199.169 132.722 199.377 132.612 199.554C132.469 199.687 132.294 199.78 132.104 199.823C131.597 199.914 131.078 199.914 130.572 199.823C130.021 199.741 129.478 199.623 128.943 199.468C127.856 199.16 126.791 198.779 125.754 198.328L123.839 197.505L124.997 199.219C125.771 200.364 126.447 201.572 127.018 202.83C127.3 203.447 127.525 204.088 127.689 204.746C127.862 205.334 127.862 205.959 127.689 206.547L127.593 206.729L127.488 206.892C127.382 206.997 127.277 207.102 127.162 207.198C126.913 207.403 126.635 207.57 126.338 207.696C125.725 207.953 125.081 208.13 124.423 208.223C123.024 208.417 121.608 208.462 120.199 208.357C121.601 208.689 123.041 208.831 124.48 208.779C125.22 208.751 125.952 208.619 126.654 208.386C127.46 208.172 128.148 207.649 128.57 206.93C128.885 206.175 128.955 205.341 128.771 204.545C128.618 203.819 128.394 203.11 128.101 202.428C127.534 201.09 126.844 199.808 126.041 198.597L125.304 199.487C126.404 199.95 127.537 200.328 128.694 200.618C129.283 200.758 129.882 200.854 130.485 200.905C131.13 200.979 131.782 200.917 132.401 200.723C132.784 200.614 133.121 200.382 133.359 200.062C133.542 199.733 133.615 199.354 133.569 198.98C133.51 198.374 133.372 197.778 133.157 197.208C132.74 196.089 132.221 195.012 131.606 193.989Z" fill="#263238"/>
<path d="M141.289 174.239C143.204 171.403 145.19 168.626 147.246 165.905C149.305 163.194 151.393 160.493 153.605 157.898C154.678 156.576 155.799 155.292 156.91 153.999C158.021 152.706 159.18 151.451 160.338 150.168C162.627 147.639 165.051 145.235 167.455 142.792C166.162 143.923 164.859 145.034 163.624 146.202C162.388 147.371 161.153 148.568 159.965 149.804C157.561 152.237 155.301 154.813 153.088 157.467C150.876 160.12 148.807 162.811 146.825 165.608C145.841 167.007 144.883 168.421 143.951 169.852C143.022 171.288 142.112 172.735 141.289 174.239Z" fill="#263238"/>
<path d="M143.702 174.373C144.717 173.214 145.723 172.045 146.758 170.905C147.792 169.765 148.807 168.616 149.851 167.486C151.939 165.225 154.036 162.974 156.211 160.781C157.264 159.67 158.365 158.587 159.448 157.505L162.781 154.306L164.457 152.725L166.162 151.174C167.273 150.11 168.47 149.143 169.6 148.089C167.129 149.928 164.715 151.863 162.417 153.923C160.118 155.982 157.887 158.108 155.712 160.302C153.538 162.495 151.46 164.765 149.458 167.112C147.457 169.459 145.503 171.873 143.702 174.373Z" fill="#263238"/>
<path d="M144.679 176.26C145.637 175.398 146.595 174.535 147.552 173.693C148.51 172.85 149.468 171.988 150.426 171.164C152.341 169.497 154.324 167.83 156.316 166.221C158.308 164.612 160.291 162.984 162.302 161.432C164.313 159.88 166.363 158.29 168.384 156.7C167.292 157.38 166.209 158.08 165.137 158.788C164.064 159.497 163.02 160.244 161.986 161.001C159.888 162.495 157.867 164.095 155.875 165.714C153.883 167.332 151.949 169.037 150.081 170.8C148.213 172.562 146.384 174.334 144.679 176.26Z" fill="#263238"/>
<path d="M101.686 238.539C100.22 240.072 98.8124 241.69 97.4716 243.328C96.1307 244.966 94.7994 246.623 93.5065 248.309C90.9205 251.671 88.4783 255.158 86.1414 258.702C83.8044 262.246 81.6208 265.886 79.5903 269.621C78.5655 271.47 77.5982 273.366 76.6404 275.263C76.1616 276.221 75.6827 277.179 75.2804 278.136L73.9587 281.01C75.9413 277.255 77.8951 273.5 80.0596 269.861C81.1132 268.022 82.205 266.211 83.2968 264.401C84.3887 262.591 85.538 260.809 86.716 259.056C88.9955 255.493 91.4377 252.025 93.9279 248.606C96.4181 245.186 98.9848 241.805 101.686 238.539Z" fill="#263238"/>
<path d="M102.73 241.355C100.441 244.42 98.3239 247.61 96.2839 250.847C94.2439 254.085 92.3475 257.409 90.5374 260.761C88.7272 264.113 86.9171 267.562 85.3559 271.02C83.7948 274.477 82.3103 278.041 80.9982 281.633C81.8123 279.899 82.521 278.127 83.3734 276.412L84.5706 273.816L85.8348 271.249C86.6681 269.535 87.5396 267.83 88.4016 266.135C89.2636 264.439 90.1734 262.753 91.1025 261.087C92.8935 257.715 94.7994 254.382 96.7341 251.125C97.6982 249.478 98.6847 247.84 99.6935 246.211C100.68 244.573 101.705 242.964 102.73 241.355Z" fill="#263238"/>
<path d="M105.316 241.824C103.678 244.573 102.241 247.447 100.833 250.32C99.4253 253.194 98.1707 256.115 96.9352 259.056C95.6997 261.997 94.5791 264.985 93.5543 268.002C93.0275 269.506 92.5487 271.029 92.0506 272.543C91.5526 274.056 91.1503 275.598 90.7194 277.14C91.8399 274.152 92.903 271.154 94.0523 268.184C95.2016 265.215 96.3414 262.255 97.5673 259.315C98.7932 256.374 100.038 253.453 101.312 250.541C101.951 249.085 102.608 247.635 103.285 246.192C103.936 244.698 104.626 243.261 105.316 241.824Z" fill="#263238"/>
<path opacity="0.1" d="M129.652 223.501C131.299 222.639 132.966 221.901 134.594 221.154C135.399 220.752 136.232 220.416 136.998 219.995C137.731 219.638 138.424 219.204 139.067 218.702C139.6 218.15 140.02 217.499 140.302 216.786C140.685 216.01 140.973 215.177 141.26 214.344C141.883 212.667 142.476 210.953 143.176 209.238C143.238 211.094 143.074 212.95 142.687 214.765C142.499 215.689 142.243 216.599 141.921 217.485C141.598 218.487 141.04 219.397 140.293 220.139C139.514 220.773 138.641 221.283 137.707 221.652C135.121 222.709 132.382 223.339 129.595 223.52L129.652 223.501Z" fill="black"/>
<path d="M302.335 234.267C311.271 215.991 321.241 188.769 312.496 167.907C303.752 147.045 256.516 112.39 249.218 91.6144C241.92 70.8386 249.409 60.2448 242.839 59.0475C239.477 58.4153 232.208 76.193 235.761 93.6738C240.617 117.524 289.261 161.106 295.142 174.746C301.023 188.386 294.816 199.986 286.972 211.92L302.335 234.267Z" fill="#FFCC00"/>
<path d="M211.176 171.058C210.656 171.029 210.15 170.88 209.697 170.622C209.245 170.364 208.858 170.004 208.567 169.572C208.277 169.14 208.091 168.646 208.023 168.129C207.956 167.613 208.009 167.087 208.178 166.595V166.595C208.226 166.451 213.072 152.323 213.408 129.009C213.609 115.043 206.272 109.22 198.515 103.051C191.312 97.304 183.861 91.4132 184.436 79.3634C184.895 69.7371 191.772 65.2735 197.844 61.3463C203.916 57.4191 209.423 53.8368 210.649 45.5322C213.341 27.5055 197.174 10.6282 197.059 10.4653C196.481 9.8222 196.174 8.98072 196.202 8.11662C196.23 7.25253 196.591 6.43262 197.209 5.82813C197.827 5.22364 198.654 4.8813 199.519 4.87261C200.383 4.86391 201.217 5.18952 201.847 5.78145C202.604 6.56689 220.476 25.1779 217.306 46.5188C215.62 57.8118 207.795 62.8884 201.512 66.9689C195.229 71.0493 191.437 73.7888 191.159 79.6891C190.747 88.3098 196.034 92.4956 202.709 97.802C210.592 104.057 220.39 111.844 220.141 129.105C219.786 153.616 214.739 168.214 214.528 168.817C214.286 169.502 213.828 170.09 213.224 170.494C212.62 170.898 211.902 171.096 211.176 171.058V171.058Z" fill="#455A64"/>
<path d="M201.924 274.458C206.837 274.458 208.226 271.144 208.226 271.144C208.226 271.144 210.601 274.975 214.614 273.778C218.627 272.581 218.158 267.677 218.158 267.677C218.158 267.677 220.552 270.895 224.862 268.778C228.339 267.083 226.509 261.843 226.509 261.843C227.56 262.836 228.917 263.443 230.357 263.565C231.798 263.686 233.237 263.316 234.44 262.514C236.355 261.374 236.125 257.725 236.441 257.533C247.082 249.363 268.631 232.188 258.173 189.784C250.223 157.553 219.116 147.438 192.088 148.788C191.676 148.788 191.456 146.595 188.535 146.595C187.825 146.527 187.111 146.668 186.48 147C185.849 147.331 185.328 147.84 184.981 148.463C184.395 147.785 183.592 147.33 182.71 147.175C181.827 147.02 180.918 147.173 180.135 147.61C179.282 148.012 178.59 148.69 178.172 149.536C177.755 150.382 177.636 151.344 177.837 152.265C176.764 151.691 175.04 148.951 171.132 150.484C167.225 152.016 167.933 156.231 167.933 156.231C167.09 155.628 166.086 155.291 165.05 155.264C164.014 155.236 162.993 155.52 162.12 156.078C161.267 156.576 161.038 160.187 160.654 160.8C155.952 155.331 153.299 161.633 154.391 163.578C155.866 166.212 152.197 167.878 151.517 168.568C134.881 185.12 130.045 219.87 142.313 241.882C157.973 269.985 183.047 272.533 196.81 271.805C196.723 271.776 198.016 274.458 201.924 274.458Z" fill="#455A64"/>
<path d="M217.382 256.566C201.522 248.443 191.647 231.24 185.863 214.976C179.733 197.677 178.115 179.1 181.16 161.001C181.39 159.641 179.312 159.085 179.082 160.426C175.833 179.508 177.67 199.109 184.407 217.256C190.479 233.443 200.43 250.292 216.29 258.443C217.526 259.066 218.618 257.198 217.382 256.566Z" fill="#37474F"/>
<path d="M198.61 262.112C185.588 250.39 175.513 235.764 169.201 219.42C162.889 203.076 160.519 185.473 162.283 168.041C162.426 166.662 160.262 166.671 160.128 168.041C158.356 185.755 160.775 203.638 167.191 220.244C173.606 236.85 183.838 251.714 197.059 263.635C198.112 264.564 199.635 263.041 198.61 262.112Z" fill="#37474F"/>
<path d="M236.595 257.983C253.834 247.916 259.581 227.869 259.782 208.874C259.79 208.685 259.741 208.497 259.642 208.335C259.543 208.173 259.399 208.044 259.226 207.964C259.821 206.993 260.306 205.958 260.673 204.88C261.123 203.568 259.044 202.964 258.594 204.305C257.668 207.182 255.733 209.626 253.144 211.187C250.556 212.747 247.491 213.317 244.515 212.792C244.458 212.787 244.4 212.787 244.343 212.792C244.65 211.241 244.871 209.674 245.004 208.099C245.089 208.115 245.177 208.115 245.262 208.099C248.415 207.969 251.46 206.912 254.016 205.06C256.571 203.208 258.523 200.643 259.629 197.687C259.684 197.556 259.707 197.413 259.696 197.272C259.685 197.13 259.641 196.993 259.568 196.871C259.494 196.75 259.392 196.648 259.271 196.573C259.15 196.498 259.014 196.453 258.872 196.442C258.86 196.349 258.834 196.258 258.795 196.173C258.782 196.146 258.766 196.121 258.747 196.097C258.879 195.978 258.978 195.828 259.037 195.66C259.095 195.493 259.111 195.314 259.083 195.139C255.482 173.693 238.845 162.313 219.508 156.336L219.863 156.126C219.985 156.055 220.092 155.96 220.177 155.848C220.263 155.735 220.325 155.607 220.361 155.471C220.397 155.334 220.406 155.192 220.387 155.052C220.368 154.912 220.322 154.777 220.251 154.655C220.18 154.533 220.085 154.426 219.973 154.341C219.86 154.255 219.732 154.193 219.596 154.157C219.459 154.121 219.317 154.112 219.177 154.131C219.037 154.15 218.902 154.196 218.78 154.267C217.957 154.727 217.152 155.225 216.338 155.704L216.223 155.781C207.668 160.957 199.923 167.367 193.237 174.804C193.025 174.918 192.856 175.1 192.758 175.321C191.36 176.892 189.99 178.491 188.688 180.158C188.63 178.185 188.63 176.202 188.688 174.219C188.861 174.215 189.03 174.168 189.18 174.083C189.33 173.998 189.457 173.877 189.55 173.731C195.724 164.559 204.307 157.268 214.356 152.658C215.62 152.074 214.528 150.216 213.273 150.742C203.544 155.227 195.142 162.158 188.889 170.857C189.346 165.266 190.36 159.734 191.916 154.344C191.965 154.078 191.912 153.803 191.769 153.573C191.625 153.344 191.401 153.176 191.14 153.104C190.879 153.032 190.6 153.06 190.359 153.183C190.118 153.307 189.932 153.516 189.837 153.769C178.584 192.965 196.302 232.869 228.607 256.154C229.737 256.968 230.81 255.1 229.699 254.296L229.306 253.999C237.312 250.661 244.081 244.915 248.675 237.557C253.269 230.199 255.46 221.595 254.945 212.936C254.938 212.756 254.885 212.581 254.792 212.428C255.82 211.742 256.757 210.927 257.579 210.005C257.119 228.204 251.469 247.265 234.43 256.547C234.301 256.615 234.187 256.71 234.095 256.824L232.179 256.48C230.819 256.23 230.264 258.309 231.605 258.558L235.244 259.229C235.419 259.261 235.6 259.251 235.771 259.202C235.942 259.152 236.099 259.064 236.23 258.943C236.361 258.822 236.462 258.673 236.525 258.506C236.589 258.34 236.612 258.161 236.595 257.983V257.983ZM217.009 157.888C235.206 163.137 251.172 172.888 256.142 191.643C246.335 176.145 229.632 161.949 210.889 161.892C212.871 160.436 214.921 159.114 217.009 157.84V157.888ZM207.9 164.114C226.826 162.629 243.787 176.566 253.815 191.968C247.526 184.533 239.678 178.572 230.828 174.51C221.977 170.448 212.342 168.383 202.604 168.463C204.309 166.988 206.09 165.503 207.9 164.114ZM196.331 174.516C197.633 173.137 198.984 171.815 200.353 170.522C200.509 170.607 200.684 170.646 200.861 170.637C211.806 170.254 222.668 172.672 232.418 177.662C242.168 182.653 250.482 190.049 256.573 199.152C256.478 199.315 256.391 199.487 256.286 199.65C248.789 191.266 239.518 184.659 229.146 180.31C218.775 175.961 207.565 173.978 196.331 174.507V174.516ZM189.033 186.145L192.078 186.049C193.467 186.001 193.467 183.846 192.078 183.894L188.87 183.999C188.87 183.587 188.793 183.175 188.774 182.763C188.948 182.764 189.119 182.723 189.273 182.645C189.428 182.567 189.562 182.453 189.665 182.313C191.13 180.398 192.682 178.568 194.272 176.777C205.598 175.921 216.969 177.696 227.496 181.963C238.023 186.23 247.421 192.873 254.955 201.374C254.211 202.197 253.372 202.927 252.455 203.549C252.409 203.453 252.344 203.368 252.264 203.3C236.533 190.116 216.488 183.209 195.976 183.903C194.588 183.903 194.588 186.106 195.976 186.058C215.822 185.356 235.234 191.973 250.52 204.65C249.364 205.185 248.139 205.559 246.881 205.761C246.852 205.625 246.796 205.496 246.715 205.382C246.634 205.268 246.531 205.172 246.412 205.1C229.535 194.133 209.581 188.881 189.492 190.12C189.31 188.807 189.157 187.486 189.033 186.145ZM238.501 222.706C237.748 224.068 236.903 225.377 235.972 226.623C228.614 223.083 222.131 217.957 216.989 211.614C216.965 211.463 216.902 211.321 216.807 211.202C216.711 211.082 216.586 210.99 216.444 210.934C212.224 205.555 209.047 199.435 207.077 192.888C208.178 193.032 209.27 193.185 210.362 193.367C210.362 193.367 210.362 193.367 210.362 193.415C216.215 206.044 226.119 216.357 238.501 222.715V222.706ZM233.137 216.959C236.343 216.76 239.419 215.617 241.977 213.673C241.4 216.12 240.565 218.499 239.487 220.771C237.295 219.638 235.174 218.371 233.137 216.978V216.959ZM232.342 230.206C229.013 231.739 225.352 232.408 221.696 232.152C218.04 231.896 214.508 230.723 211.425 228.74C212.117 227.543 212.971 226.447 213.963 225.484C216.318 227.525 219.253 228.779 222.357 229.069C225.46 229.359 228.576 228.672 231.27 227.102C231.413 227.026 231.535 226.914 231.624 226.777C232.582 227.323 233.597 227.849 234.603 228.347C234.076 228.97 233.511 229.564 232.946 230.129C232.741 230.098 232.532 230.125 232.342 230.206V230.206ZM215.62 224.066C217.689 222.572 220.081 221.587 222.602 221.192C222.817 221.156 223.012 221.048 223.157 220.886C225.187 222.574 227.331 224.12 229.574 225.512C227.366 226.677 224.863 227.163 222.38 226.907C219.896 226.651 217.544 225.666 215.62 224.075V224.066ZM216.769 199.698C216.658 199.741 216.554 199.803 216.463 199.88C215.19 197.936 214.03 195.921 212.986 193.846C215.131 194.267 217.248 194.804 219.355 195.378C219.458 196.284 219.261 197.198 218.794 197.98C218.326 198.762 217.615 199.369 216.769 199.708V199.698ZM221.558 195.982C224.567 196.882 227.527 197.937 230.427 199.143C230.072 201.155 229.154 203.026 227.779 204.538C226.404 206.05 224.629 207.142 222.659 207.687C222.612 207.706 222.567 207.732 222.525 207.763C220.772 205.831 219.147 203.786 217.66 201.643C218.78 201.172 219.74 200.389 220.426 199.386C221.112 198.384 221.495 197.206 221.529 195.991L221.558 195.982ZM224.153 209.478C226.232 208.738 228.086 207.48 229.541 205.822C230.996 204.164 232.003 202.161 232.467 200.005C233.779 200.589 235.072 201.212 236.355 201.853C236.355 201.853 236.355 201.911 236.355 201.949C235.841 204.366 234.611 206.572 232.826 208.28C231.041 209.989 228.784 211.12 226.347 211.528C225.568 210.876 224.827 210.196 224.125 209.487L224.153 209.478ZM189.876 192.237C192.806 192.074 195.727 192.064 198.629 192.17C195.42 194.117 192.989 197.121 191.753 200.666C190.967 197.917 190.354 195.11 189.847 192.265L189.876 192.237ZM192.586 203.52C192.774 203.488 192.948 203.401 193.086 203.27C193.225 203.138 193.321 202.969 193.362 202.782C193.877 200.622 194.894 198.614 196.33 196.919C197.766 195.225 199.58 193.893 201.627 193.032C201.767 192.978 201.89 192.889 201.984 192.773C202.078 192.657 202.14 192.518 202.163 192.371C203.121 192.447 204.079 192.514 204.97 192.61C204.907 192.81 204.907 193.024 204.97 193.223C205.945 196.565 207.228 199.81 208.801 202.917C206.037 202.963 203.333 203.721 200.947 205.117C198.562 206.513 196.576 208.5 195.181 210.886C194.185 208.501 193.333 206.039 192.557 203.549L192.586 203.52ZM196.264 213.357C196.366 213.269 196.451 213.162 196.513 213.041C197.713 210.522 199.64 208.42 202.045 207.005C204.45 205.59 207.223 204.926 210.007 205.1C211.192 207.212 212.513 209.244 213.963 211.183C210.932 211.772 208.129 213.203 205.874 215.312C203.619 217.421 202.005 220.123 201.215 223.108C199.37 219.965 197.707 216.719 196.235 213.386L196.264 213.357ZM202.662 225.512C202.834 225.372 202.953 225.175 202.997 224.957C203.516 221.902 205.009 219.096 207.253 216.959C209.496 214.822 212.371 213.468 215.448 213.099C216.147 213.951 216.875 214.794 217.622 215.608C211.76 218.252 205.755 221.796 204.596 228.491C203.926 227.533 203.265 226.547 202.633 225.541L202.662 225.512ZM206.033 230.541C206.198 230.459 206.339 230.336 206.441 230.183C206.544 230.03 206.604 229.853 206.617 229.669C207.173 222.907 213.685 219.679 219.211 217.217C219.901 217.907 220.6 218.577 221.319 219.229C217.98 219.891 214.905 221.505 212.463 223.876C210.021 226.246 208.316 229.273 207.556 232.591C207.019 231.959 206.502 231.269 206.004 230.57L206.033 230.541ZM221.232 237.323C219.159 237.652 217.04 237.549 215.008 237.022C212.976 236.494 211.075 235.553 209.423 234.257C209.632 233.015 209.982 231.8 210.467 230.637C213.163 232.339 216.172 233.483 219.318 234.002C222.463 234.52 225.68 234.402 228.779 233.654C226.676 235.144 224.449 236.451 222.123 237.562C221.997 237.457 221.848 237.383 221.688 237.347C221.529 237.31 221.363 237.312 221.204 237.351L221.232 237.323ZM212.115 238.28C213.852 239.006 215.696 239.443 217.574 239.573C216.52 239.995 215.457 240.416 214.384 240.828C213.58 240.033 212.833 239.181 212.086 238.319L212.115 238.28ZM215.946 242.514C224.249 239.296 231.892 235.474 237.447 228.146C240.466 224.154 242.649 219.593 243.864 214.736C243.864 214.736 243.864 214.736 243.931 214.736C245.744 215.03 247.594 215.01 249.4 214.679C248.198 222.123 244.914 229.075 239.928 234.731C234.942 240.387 228.457 244.517 221.223 246.642C221.009 246.702 220.823 246.834 220.696 247.016C219.087 245.627 217.478 244.114 215.955 242.552L215.946 242.514ZM227.553 252.504C227.477 252.504 227.439 252.591 227.372 252.629C225.667 251.317 223.981 249.976 222.362 248.577C229.984 246.244 236.784 241.791 241.97 235.738C247.156 229.685 250.513 222.281 251.651 214.392C251.665 214.316 251.665 214.238 251.651 214.162C252.053 214.018 252.445 213.836 252.829 213.664C253.232 221.976 251.009 230.205 246.474 237.184C241.939 244.162 235.323 249.536 227.563 252.543L227.553 252.504ZM230.139 214.736C229.517 214.258 228.894 213.779 228.291 213.261C230.718 212.556 232.916 211.223 234.663 209.397C236.41 207.57 237.645 205.315 238.242 202.859C239.838 203.708 241.415 204.602 242.973 205.541C242.942 207.112 242.814 208.679 242.59 210.235C241.028 211.928 239.084 213.223 236.92 214.013C234.756 214.802 232.434 215.064 230.149 214.775L230.139 214.736Z" fill="#37474F"/>
<path d="M186.437 261.968C186.54 261.913 186.632 261.838 186.705 261.748C187.711 262.265 188.937 260.933 187.97 260.081C176.304 249.724 167.302 236.711 161.724 222.142C156.147 207.573 154.157 191.875 155.923 176.375C156.076 175.005 153.921 175.014 153.768 176.375C153.682 177.15 153.615 177.926 153.548 178.693C148.515 179.002 143.807 181.284 140.446 185.043C139.488 186.078 141.04 187.601 141.969 186.566C144.888 183.254 148.983 181.209 153.385 180.867C153.27 182.783 153.206 184.679 153.194 186.556C147.173 187.797 141.596 190.632 137.046 194.765C136.011 195.723 137.544 197.208 138.569 196.288C142.705 192.564 147.744 189.985 153.184 188.807C153.184 190.024 153.241 191.25 153.299 192.466C146.724 193.512 140.694 196.745 136.184 201.643C135.226 202.658 136.759 204.19 137.707 203.166C141.863 198.66 147.392 195.656 153.433 194.622C153.481 195.292 153.538 195.963 153.596 196.633C146.776 198.522 140.526 202.062 135.399 206.94C134.393 207.897 135.916 209.411 136.921 208.462C141.701 203.926 147.508 200.613 153.845 198.807C154.008 200.225 154.19 201.633 154.41 203.031C154.209 202.993 154.001 203.02 153.816 203.108C146.285 206.358 139.954 211.876 135.705 218.893C134.977 220.081 136.835 221.164 137.563 219.985C141.605 213.352 147.6 208.133 154.726 205.043C154.965 206.336 155.214 207.629 155.502 208.874C155.273 208.893 155.058 208.988 154.889 209.143C150.924 212.812 147.776 217.276 145.652 222.244C143.529 227.212 142.476 232.572 142.563 237.974C142.588 238.242 142.712 238.491 142.912 238.673C143.111 238.854 143.371 238.955 143.64 238.955C143.909 238.955 144.169 238.854 144.368 238.673C144.568 238.491 144.692 238.242 144.717 237.974C144.631 232.949 145.592 227.961 147.537 223.327C149.483 218.693 152.371 214.515 156.019 211.058C156.479 212.974 156.977 214.842 157.599 216.71C151.331 223.881 147.484 232.847 146.604 242.332C146.373 242.346 146.152 242.431 145.971 242.576C145.79 242.721 145.658 242.918 145.594 243.141C145.53 243.364 145.537 243.601 145.613 243.819C145.689 244.038 145.831 244.228 146.02 244.363C149.863 246.961 154.251 248.641 158.846 249.274C163.441 249.906 168.119 249.475 172.521 248.012C172.703 247.963 172.866 247.861 172.99 247.72C173.115 247.579 173.195 247.404 173.22 247.217C174.178 248.472 175.136 249.698 176.151 250.914C172.038 253.435 167.268 254.672 162.449 254.469C157.63 254.266 152.981 252.632 149.094 249.775C147.955 248.97 146.872 250.838 148.003 251.633C152.275 254.726 157.376 256.471 162.648 256.642C167.921 256.812 173.124 255.401 177.588 252.591C178.737 253.912 179.921 255.209 181.141 256.479C177.799 258.376 174.109 259.581 170.292 260.022C166.474 260.463 162.607 260.131 158.921 259.047C158.655 258.997 158.38 259.05 158.15 259.193C157.921 259.337 157.753 259.561 157.681 259.822C157.609 260.083 157.637 260.362 157.761 260.603C157.884 260.844 158.093 261.03 158.346 261.125C162.399 262.306 166.65 262.642 170.838 262.113C175.026 261.584 179.06 260.201 182.692 258.05C183.449 258.797 184.215 259.535 185.001 260.273C179.177 263.199 172.654 264.446 166.162 263.874C164.782 263.759 164.782 265.914 166.162 266.029C173.168 266.618 180.198 265.209 186.437 261.968V261.968ZM151.68 230.359C153.337 226.303 155.597 222.522 158.385 219.143C159.893 223.609 161.717 227.962 163.844 232.169C159.712 232.79 155.489 232.159 151.719 230.359H151.68ZM150.943 232.37C155.221 234.34 159.992 234.981 164.639 234.209C164.704 234.193 164.769 234.17 164.83 234.142C165.711 235.79 166.65 237.409 167.627 239.008C161.558 240.132 155.296 239.515 149.564 237.227C149.934 235.578 150.394 233.95 150.943 232.351V232.37ZM148.28 243.261C148.41 243.171 148.518 243.053 148.596 242.915C148.674 242.777 148.72 242.624 148.73 242.466C148.836 241.422 148.979 240.388 149.161 239.372C155.26 241.727 161.898 242.318 168.316 241.077C168.491 241.046 168.654 240.966 168.786 240.847C169.887 242.571 171.056 244.257 172.262 245.924C172.164 245.906 172.064 245.906 171.966 245.924C168.063 247.243 163.917 247.687 159.824 247.223C155.731 246.76 151.789 245.4 148.28 243.242V243.261Z" fill="#37474F"/>
<path d="M174.647 215.838C166.027 197.399 167.656 176.959 169.418 157.275C169.542 155.896 167.387 155.905 167.263 157.275C165.453 177.39 164.007 198.089 172.78 216.92C173.373 218.204 175.231 217.112 174.647 215.838Z" fill="#37474F"/>
<path d="M185.891 156.882C186.198 154.152 186.495 151.432 186.801 148.702C186.954 147.323 184.799 147.332 184.646 148.702C184.34 151.432 184.033 154.152 183.736 156.882C183.583 158.262 185.738 158.252 185.891 156.882Z" fill="#37474F"/>
<path d="M218.177 267.466C201.316 260.001 188.052 246.226 181.227 229.095C180.719 227.821 178.632 228.376 179.149 229.669C186.125 247.344 199.747 261.583 217.095 269.334C218.35 269.889 219.441 268.031 218.177 267.466Z" fill="#37474F"/>
<path d="M228.186 260.646C211.43 247.787 198.085 231.014 189.32 211.796C188.736 210.541 186.878 211.633 187.452 212.888C196.418 232.41 210.032 249.436 227.103 262.476C228.205 263.357 229.277 261.479 228.186 260.646Z" fill="#37474F"/>
<path d="M187.979 208.175C187.954 207.907 187.829 207.658 187.63 207.476C187.431 207.295 187.171 207.194 186.902 207.194C186.632 207.194 186.372 207.295 186.173 207.476C185.974 207.658 185.85 207.907 185.824 208.175C185.85 208.443 185.974 208.693 186.173 208.874C186.372 209.055 186.632 209.156 186.902 209.156C187.171 209.156 187.431 209.055 187.63 208.874C187.829 208.693 187.954 208.443 187.979 208.175Z" fill="#37474F"/>
<path d="M179.474 210.254C173.359 191.683 172.599 171.765 177.281 152.783C177.607 151.442 175.528 150.867 175.203 152.218C170.422 171.57 171.182 191.878 177.396 210.819C177.827 212.141 179.905 211.585 179.474 210.254Z" fill="#37474F"/>
<path d="M176.745 221.135C176.719 220.867 176.595 220.617 176.396 220.436C176.196 220.255 175.937 220.154 175.667 220.154C175.398 220.154 175.138 220.255 174.939 220.436C174.74 220.617 174.615 220.867 174.59 221.135C174.615 221.403 174.74 221.652 174.939 221.834C175.138 222.015 175.398 222.115 175.667 222.115C175.937 222.115 176.196 222.015 176.396 221.834C176.595 221.652 176.719 221.403 176.745 221.135V221.135Z" fill="#37474F"/>
<path d="M195.383 269.985C196.089 270.351 196.819 270.67 197.566 270.943C198.879 271.422 199.482 269.334 198.141 268.864C195.151 267.781 192.571 265.796 190.757 263.184C189.962 262.064 188.094 263.136 188.889 264.276C189.052 264.506 189.224 264.717 189.397 264.937C185.002 266.942 180.148 267.723 175.346 267.198C173.967 267.054 173.977 269.219 175.346 269.353C180.668 269.908 186.038 268.965 190.853 266.633C191.554 267.33 192.31 267.971 193.113 268.548C191.384 269.134 189.589 269.498 187.769 269.631C186.389 269.736 186.38 271.891 187.769 271.786C190.386 271.593 192.956 270.985 195.383 269.985Z" fill="#37474F"/>
<path d="M156.383 172.466C156.657 170.608 156.929 168.756 157.197 166.911C157.221 166.737 157.204 166.56 157.147 166.394C157.091 166.227 156.996 166.076 156.871 165.953C157.903 165.589 158.838 164.993 159.603 164.211C160.369 163.429 160.945 162.481 161.287 161.442C161.737 160.129 159.658 159.526 159.208 160.867C158.903 161.766 158.349 162.56 157.609 163.155C156.87 163.75 155.976 164.123 155.032 164.229C153.663 164.363 153.653 166.518 155.032 166.384H155.119C154.851 168.233 154.573 170.072 154.305 171.92C154.103 173.242 156.182 173.836 156.383 172.466Z" fill="#37474F"/>
<path d="M198.265 10.293C200.836 10.293 202.92 8.20878 202.92 5.63781C202.92 3.06685 200.836 0.982666 198.265 0.982666C195.695 0.982666 193.611 3.06685 193.611 5.63781C193.611 8.20878 195.695 10.293 198.265 10.293Z" fill="#C7C7C7"/>
<path d="M202.422 4.70869C202.422 5.62939 202.149 6.52942 201.638 7.29495C201.126 8.06049 200.399 8.65714 199.549 9.00948C198.698 9.36182 197.762 9.45401 196.859 9.27439C195.956 9.09477 195.127 8.65141 194.476 8.00037C193.825 7.34934 193.382 6.51987 193.202 5.61686C193.023 4.71385 193.115 3.77786 193.467 2.92724C193.819 2.07662 194.416 1.34958 195.181 0.838068C195.947 0.326554 196.847 0.0535377 197.767 0.0535377C198.379 0.0522752 198.985 0.171818 199.55 0.405314C200.115 0.63881 200.629 0.981657 201.062 1.41418C201.494 1.8467 201.837 2.36038 202.07 2.92574C202.304 3.4911 202.423 4.09701 202.422 4.70869Z" fill="#DBDBDB"/>
<path d="M142.84 246.489C142.84 246.489 160.128 217.208 164.744 211.892C167.933 208.213 179.733 201.71 187.328 195.464C188.86 194.2 191.379 188.712 194.77 188.3C199.329 187.744 206.167 197.217 203.543 205.666C200.918 214.114 188.219 222.342 187.261 224.028C186.303 225.713 193.553 244.535 190.967 249.66C188.381 254.784 166.736 267.485 163.193 267.322C159.649 267.16 140.954 251.652 142.84 246.489Z" fill="#FFCC00"/>
<path d="M193.496 207.15C195.812 208.938 198.709 209.805 201.627 209.583C202.441 208.354 203.086 207.02 203.543 205.618C206.167 197.179 199.329 187.706 194.77 188.261C191.379 188.673 188.851 194.162 187.328 195.426C187.328 195.426 187.922 202.572 193.496 207.15Z" fill="#EBEBEB"/>
<path d="M200.497 191.164C200.509 191.156 200.524 191.153 200.538 191.154C200.553 191.155 200.567 191.161 200.577 191.171C200.588 191.181 200.596 191.193 200.598 191.208C200.601 191.222 200.599 191.237 200.593 191.25C199.511 192.773 198.495 194.344 197.566 195.963C196.59 197.363 196.102 199.046 196.178 200.752C196.172 200.769 196.161 200.783 196.146 200.794C196.132 200.804 196.114 200.81 196.096 200.81C196.078 200.81 196.061 200.804 196.046 200.794C196.032 200.783 196.021 200.769 196.015 200.752C195.621 199.056 195.775 197.278 196.455 195.675C197.317 193.807 198.974 192.466 200.497 191.164Z" fill="#263238"/>
<path d="M196.522 188.175C196.58 188.175 196.656 188.175 196.618 188.261C195.631 189.764 194.741 191.328 193.956 192.945C193.266 194.305 191.983 196.374 192.998 197.849C193.17 198.108 192.998 198.175 192.797 197.955C191.485 196.643 192.126 194.487 192.749 193.012C193.63 191.138 194.919 189.486 196.522 188.175V188.175Z" fill="#263238"/>
<path d="M151.336 232.342C150.871 233.594 150.32 234.814 149.688 235.991C149.094 237.179 148.424 238.319 147.773 239.449C147.121 240.579 146.384 241.69 145.627 242.773C144.871 243.855 144.095 244.928 143.243 245.981C143.581 244.681 144.053 243.42 144.65 242.217C145.23 241.017 145.869 239.847 146.566 238.711C147.265 237.581 147.983 236.47 148.778 235.407C149.551 234.321 150.406 233.297 151.336 232.342V232.342Z" fill="#263238"/>
<path d="M190.144 250.771C188.003 253.316 185.58 255.61 182.922 257.61C180.297 259.646 177.546 261.514 174.686 263.204C171.809 264.876 168.82 266.348 165.74 267.61C162.665 268.867 159.477 269.829 156.22 270.483C159.228 269.066 162.216 267.725 165.127 266.24C168.039 264.755 170.874 263.204 173.747 261.537C176.62 259.87 179.331 258.165 182.08 256.384C184.828 254.602 187.529 252.792 190.144 250.771Z" fill="#263238"/>
<path d="M170.749 264.305C170.279 265.157 169.721 265.956 169.083 266.69C168.459 267.432 167.783 268.13 167.062 268.778C165.636 270.111 163.973 271.164 162.158 271.882C162.877 271.211 163.595 270.598 164.304 269.966C165.012 269.334 165.731 268.711 166.42 268.05C167.847 266.805 169.226 265.522 170.749 264.305Z" fill="#263238"/>
<path d="M236.566 267.351C236.566 267.351 204.673 221.69 214.116 202.782C221.079 188.855 254.811 169.133 254.811 169.133C254.811 169.133 238.893 148.511 238.683 144.325C238.472 140.139 248.998 139.957 254.658 141.327C260.318 142.696 283.391 170.771 283.707 174.296C284.023 177.821 276.274 190.579 277.338 196.058C278.401 201.537 286.475 207.869 287.03 208.807C287.586 209.746 292.901 232.754 288.151 240.34C283.4 247.926 243.404 270.924 236.566 267.351Z" fill="#FFCC00"/>
<path d="M247.331 159.076C256.19 160.101 261.046 150.34 262.387 147.141C259.159 144.009 256.305 141.719 254.648 141.317C249.007 139.957 238.472 140.139 238.683 144.325C238.817 146.921 243.663 154.037 247.331 159.076Z" fill="#EBEBEB"/>
<path d="M245.578 140.331C245.583 140.318 245.592 140.307 245.603 140.3C245.614 140.292 245.627 140.288 245.641 140.288C245.654 140.288 245.667 140.292 245.678 140.3C245.689 140.307 245.698 140.318 245.703 140.331C245.99 142.246 246.354 144.21 246.814 146.078C247.079 147.838 247.914 149.463 249.189 150.704C249.203 150.719 249.212 150.739 249.213 150.759C249.214 150.78 249.207 150.8 249.194 150.817C249.182 150.833 249.163 150.844 249.143 150.848C249.123 150.852 249.102 150.848 249.084 150.838C247.559 149.834 246.392 148.372 245.751 146.662C245.042 144.622 245.349 142.447 245.578 140.331Z" fill="#263238"/>
<path d="M240.397 140.934C240.397 140.916 240.404 140.899 240.417 140.887C240.429 140.874 240.446 140.867 240.464 140.867C240.482 140.867 240.499 140.874 240.511 140.887C240.524 140.899 240.531 140.916 240.531 140.934C240.861 142.792 241.316 144.625 241.891 146.423C242.341 147.955 242.849 150.455 244.678 150.867C244.994 150.934 244.927 151.097 244.602 151.087C242.686 151.039 241.585 148.942 240.991 147.361C240.311 145.291 240.108 143.094 240.397 140.934V140.934Z" fill="#263238"/>
<path d="M215.898 229.095C218.033 233.05 220.102 237.026 222.171 241.001C224.24 244.976 226.299 248.941 228.425 252.868C230.551 256.796 232.687 260.723 234.89 264.612C237.093 268.5 239.411 272.274 241.805 276.106C238.808 272.739 236.071 269.149 233.616 265.368C231.136 261.604 228.885 257.705 226.739 253.75C224.594 249.794 222.64 245.732 220.83 241.623C219.02 237.514 217.306 233.367 215.898 229.095Z" fill="#263238"/>
<path d="M278.085 198.242C280.502 201.181 283.079 203.985 285.804 206.643C286.149 206.959 286.494 207.275 286.848 207.6C287.254 207.919 287.635 208.268 287.988 208.644C288.649 209.508 289.116 210.505 289.357 211.566C289.821 213.486 290.1 215.445 290.191 217.418C290.351 221.275 290.242 225.138 289.865 228.98C289.524 232.807 288.952 236.61 288.151 240.368C288.151 236.537 288.294 232.706 288.371 228.874C288.447 225.043 288.495 221.211 288.275 217.505C288.221 215.652 287.996 213.808 287.605 211.997C287.464 211.174 287.158 210.389 286.704 209.688C286.403 209.352 286.083 209.032 285.747 208.731C285.402 208.386 285.057 208.031 284.731 207.677C282.145 204.81 279.913 201.643 278.085 198.242Z" fill="#263238"/>
<path d="M231.873 261.029C232.748 262.79 233.503 264.608 234.133 266.47C234.765 268.318 235.359 270.167 235.829 272.102C234.72 270.458 233.843 268.669 233.223 266.786C232.561 264.923 232.108 262.992 231.873 261.029V261.029Z" fill="#263238"/>
<path d="M289.242 226.135C290.167 227.34 290.901 228.681 291.416 230.11C291.682 230.823 291.89 231.557 292.039 232.303C292.216 233.056 292.255 233.835 292.154 234.602C291.886 233.874 291.598 233.204 291.321 232.514C291.043 231.824 290.784 231.135 290.516 230.445C289.975 229.045 289.549 227.604 289.242 226.135Z" fill="#263238"/>
</svg>
