<svg width="609" height="396" viewBox="0 0 609 396" fill="none" xmlns="http://www.w3.org/2000/svg">
<path d="M543.069 197.546L580.806 197.546L580.806 181.638L543.069 181.637L543.069 197.546Z" stroke="#EBEBEB" stroke-width="1.3005" stroke-miterlimit="10"/>
<path d="M210.144 395.676C293.895 395.676 361.789 384.862 361.789 371.522C361.789 358.182 293.895 347.368 210.144 347.368C126.392 347.368 58.4977 358.182 58.4977 371.522C58.4977 384.862 126.392 395.676 210.144 395.676Z" fill="#EBEBEB"/>
<path d="M421.615 84.4471H329.567V340.248H421.615V84.4471Z" fill="#37474F"/>
<path d="M592.563 84.4471H421.615V340.248H592.563V84.4471Z" fill="#455A64"/>
<path d="M581.798 295.292H434.712V329.185H581.798V295.292Z" fill="#37474F"/>
<path d="M524.622 300.894H440.897V303.751H524.622V300.894Z" fill="#455A64"/>
<path d="M524.622 305.855H440.897V308.713H524.622V305.855Z" fill="#455A64"/>
<path d="M524.622 310.817H440.897V313.674H524.622V310.817Z" fill="#455A64"/>
<path d="M524.622 315.764H440.897V318.622H524.622V315.764Z" fill="#455A64"/>
<path d="M524.622 320.726H440.897V323.583H524.622V320.726Z" fill="#455A64"/>
<path d="M539.885 303.737C539.885 305.301 538.617 306.58 537.035 306.58C535.453 306.58 534.185 305.315 534.185 303.737C534.185 302.173 535.453 300.894 537.035 300.894C538.617 300.894 539.885 302.159 539.885 303.737Z" fill="#FFCC00"/>
<path d="M549.262 303.737C549.262 305.301 547.994 306.58 546.412 306.58C544.845 306.58 543.562 305.315 543.562 303.737C543.562 302.173 544.83 300.894 546.412 300.894C547.994 300.894 549.262 302.159 549.262 303.737Z" fill="#FFCC00"/>
<path d="M558.64 303.737C558.64 305.301 557.371 306.58 555.79 306.58C554.208 306.58 552.939 305.315 552.939 303.737C552.939 302.173 554.208 300.894 555.79 300.894C557.371 300.894 558.64 302.159 558.64 303.737Z" fill="#FFCC00"/>
<path d="M568.003 303.737C568.003 305.301 566.734 306.58 565.152 306.58C563.571 306.58 562.302 305.315 562.302 303.737C562.302 302.173 563.571 300.894 565.152 300.894C566.734 300.894 568.003 302.159 568.003 303.737Z" fill="#FFCC00"/>
<path d="M577.38 303.737C577.38 305.301 576.111 306.58 574.53 306.58C572.962 306.58 571.679 305.315 571.679 303.737C571.679 302.173 572.948 300.894 574.53 300.894C576.111 300.894 577.38 302.159 577.38 303.737Z" fill="#FFCC00"/>
<path d="M539.885 312.239C539.885 313.802 538.617 315.082 537.035 315.082C535.453 315.082 534.185 313.817 534.185 312.239C534.185 310.675 535.453 309.395 537.035 309.395C538.617 309.395 539.885 310.675 539.885 312.239Z" fill="#FFCC00"/>
<path d="M549.262 312.239C549.262 313.802 547.994 315.082 546.412 315.082C544.845 315.082 543.562 313.817 543.562 312.239C543.562 310.675 544.83 309.395 546.412 309.395C547.994 309.409 549.262 310.675 549.262 312.239Z" fill="#FFCC00"/>
<path d="M558.64 312.239C558.64 313.802 557.371 315.082 555.79 315.082C554.208 315.082 552.939 313.817 552.939 312.239C552.939 310.675 554.208 309.395 555.79 309.395C557.371 309.395 558.64 310.675 558.64 312.239Z" fill="#FFCC00"/>
<path d="M568.003 312.239C568.003 313.802 566.734 315.082 565.152 315.082C563.571 315.082 562.302 313.817 562.302 312.239C562.302 310.675 563.571 309.395 565.152 309.395C566.734 309.395 568.003 310.675 568.003 312.239Z" fill="#FFCC00"/>
<path d="M577.38 312.239C577.38 313.802 576.111 315.082 574.53 315.082C572.962 315.082 571.679 313.817 571.679 312.239C571.679 310.675 572.948 309.395 574.53 309.395C576.111 309.409 577.38 310.675 577.38 312.239Z" fill="#FFCC00"/>
<path d="M537.049 323.598C538.623 323.598 539.9 322.325 539.9 320.754C539.9 319.184 538.623 317.911 537.049 317.911C535.475 317.911 534.199 319.184 534.199 320.754C534.199 322.325 535.475 323.598 537.049 323.598Z" fill="#FFCC00"/>
<path d="M549.262 320.754C549.262 322.318 547.994 323.598 546.412 323.598C544.845 323.598 543.562 322.332 543.562 320.754C543.562 319.19 544.83 317.911 546.412 317.911C547.994 317.911 549.262 319.19 549.262 320.754Z" fill="#FFCC00"/>
<path d="M555.79 323.598C557.364 323.598 558.64 322.325 558.64 320.754C558.64 319.184 557.364 317.911 555.79 317.911C554.215 317.911 552.939 319.184 552.939 320.754C552.939 322.325 554.215 323.598 555.79 323.598Z" fill="#FFCC00"/>
<path d="M568.003 320.754C568.003 322.318 566.734 323.598 565.152 323.598C563.571 323.598 562.302 322.332 562.302 320.754C562.302 319.19 563.571 317.911 565.152 317.911C566.734 317.911 568.003 319.19 568.003 320.754Z" fill="#FFCC00"/>
<path d="M577.38 320.754C577.38 322.318 576.111 323.598 574.53 323.598C572.962 323.598 571.679 322.332 571.679 320.754C571.679 319.19 572.948 317.911 574.53 317.911C576.111 317.911 577.38 319.19 577.38 320.754Z" fill="#FFCC00"/>
<path d="M530.451 300.894H528.812V323.583H530.451V300.894Z" fill="#263238"/>
<path d="M581.798 254.462H434.712V288.355H581.798V254.462Z" fill="#37474F"/>
<path d="M524.622 260.049H440.897V262.907H524.622V260.049Z" fill="#455A64"/>
<path d="M524.622 265.011H440.897V267.869H524.622V265.011Z" fill="#455A64"/>
<path d="M524.622 269.973H440.897V272.83H524.622V269.973Z" fill="#455A64"/>
<path d="M524.622 274.934H440.897V277.792H524.622V274.934Z" fill="#455A64"/>
<path d="M524.622 279.882H440.897V282.739H524.622V279.882Z" fill="#455A64"/>
<path d="M539.885 262.893C539.885 264.456 538.617 265.736 537.035 265.736C535.453 265.736 534.185 264.471 534.185 262.893C534.185 261.329 535.453 260.049 537.035 260.049C538.617 260.049 539.885 261.329 539.885 262.893Z" fill="#FFCC00"/>
<path d="M549.262 262.893C549.262 264.457 547.994 265.736 546.412 265.736C544.845 265.736 543.562 264.471 543.562 262.893C543.562 261.329 544.83 260.049 546.412 260.049C547.994 260.049 549.262 261.329 549.262 262.893Z" fill="#FFCC00"/>
<path d="M558.64 262.893C558.64 264.457 557.371 265.736 555.79 265.736C554.208 265.736 552.939 264.471 552.939 262.893C552.939 261.329 554.208 260.049 555.79 260.049C557.371 260.049 558.64 261.329 558.64 262.893Z" fill="#FFCC00"/>
<path d="M568.003 262.893C568.003 264.457 566.734 265.736 565.152 265.736C563.571 265.736 562.302 264.471 562.302 262.893C562.302 261.329 563.571 260.049 565.152 260.049C566.734 260.049 568.003 261.329 568.003 262.893Z" fill="#FFCC00"/>
<path d="M577.38 262.893C577.38 264.457 576.111 265.736 574.53 265.736C572.962 265.736 571.679 264.471 571.679 262.893C571.679 261.329 572.948 260.049 574.53 260.049C576.111 260.049 577.38 261.329 577.38 262.893Z" fill="#FFCC00"/>
<path d="M539.885 271.394C539.885 272.958 538.617 274.238 537.035 274.238C535.453 274.238 534.185 272.972 534.185 271.394C534.185 269.83 535.453 268.551 537.035 268.551C538.617 268.551 539.885 269.83 539.885 271.394Z" fill="#FFCC00"/>
<path d="M549.262 271.394C549.262 272.958 547.994 274.238 546.412 274.238C544.845 274.238 543.562 272.972 543.562 271.394C543.562 269.83 544.83 268.551 546.412 268.551C547.994 268.565 549.262 269.83 549.262 271.394Z" fill="#FFCC00"/>
<path d="M558.64 271.394C558.64 272.958 557.371 274.238 555.79 274.238C554.208 274.238 552.939 272.972 552.939 271.394C552.939 269.83 554.208 268.551 555.79 268.551C557.371 268.551 558.64 269.83 558.64 271.394Z" fill="#FFCC00"/>
<path d="M568.003 271.394C568.003 272.958 566.734 274.238 565.152 274.238C563.571 274.238 562.302 272.972 562.302 271.394C562.302 269.83 563.571 268.551 565.152 268.551C566.734 268.551 568.003 269.83 568.003 271.394Z" fill="#FFCC00"/>
<path d="M577.38 271.394C577.38 272.958 576.111 274.238 574.53 274.238C572.962 274.238 571.679 272.972 571.679 271.394C571.679 269.83 572.948 268.551 574.53 268.551C576.111 268.565 577.38 269.83 577.38 271.394Z" fill="#FFCC00"/>
<path d="M539.885 279.91C539.885 281.474 538.617 282.753 537.035 282.753C535.453 282.753 534.185 281.488 534.185 279.91C534.185 278.346 535.453 277.067 537.035 277.067C538.617 277.067 539.885 278.346 539.885 279.91Z" fill="#FFCC00"/>
<path d="M549.262 279.91C549.262 281.474 547.994 282.753 546.412 282.753C544.845 282.753 543.562 281.488 543.562 279.91C543.562 278.346 544.83 277.067 546.412 277.067C547.994 277.067 549.262 278.346 549.262 279.91Z" fill="#FFCC00"/>
<path d="M558.64 279.91C558.64 281.474 557.371 282.753 555.79 282.753C554.208 282.753 552.939 281.488 552.939 279.91C552.939 278.346 554.208 277.067 555.79 277.067C557.371 277.067 558.64 278.346 558.64 279.91Z" fill="#FFCC00"/>
<path d="M568.003 279.91C568.003 281.474 566.734 282.753 565.152 282.753C563.571 282.753 562.302 281.488 562.302 279.91C562.302 278.346 563.571 277.067 565.152 277.067C566.734 277.067 568.003 278.346 568.003 279.91Z" fill="#FFCC00"/>
<path d="M577.38 279.91C577.38 281.474 576.111 282.753 574.53 282.753C572.962 282.753 571.679 281.488 571.679 279.91C571.679 278.346 572.948 277.067 574.53 277.067C576.111 277.067 577.38 278.346 577.38 279.91Z" fill="#FFCC00"/>
<path d="M530.451 260.049H528.812V282.739H530.451V260.049Z" fill="#263238"/>
<path d="M581.798 213.618H434.712V247.51H581.798V213.618Z" fill="#37474F"/>
<path d="M524.622 219.219H440.897V222.077H524.622V219.219Z" fill="#455A64"/>
<path d="M524.622 224.166H440.897V227.024H524.622V224.166Z" fill="#455A64"/>
<path d="M524.622 229.128H440.897V231.986H524.622V229.128Z" fill="#455A64"/>
<path d="M524.622 234.09H440.897V236.947H524.622V234.09Z" fill="#455A64"/>
<path d="M524.622 239.051H440.897V241.909H524.622V239.051Z" fill="#455A64"/>
<path d="M537.049 224.891C538.623 224.891 539.899 223.618 539.899 222.048C539.899 220.478 538.623 219.205 537.049 219.205C535.475 219.205 534.199 220.478 534.199 222.048C534.199 223.618 535.475 224.891 537.049 224.891Z" fill="#FFCC00"/>
<path d="M549.262 222.048C549.262 223.612 547.994 224.891 546.412 224.891C544.845 224.891 543.562 223.626 543.562 222.048C543.562 220.484 544.83 219.205 546.412 219.205C547.994 219.219 549.262 220.484 549.262 222.048Z" fill="#FFCC00"/>
<path d="M555.79 224.891C557.364 224.891 558.64 223.618 558.64 222.048C558.64 220.478 557.364 219.205 555.79 219.205C554.215 219.205 552.939 220.478 552.939 222.048C552.939 223.618 554.215 224.891 555.79 224.891Z" fill="#FFCC00"/>
<path d="M568.003 222.048C568.003 223.612 566.734 224.891 565.152 224.891C563.571 224.891 562.302 223.626 562.302 222.048C562.302 220.484 563.571 219.205 565.152 219.205C566.734 219.205 568.003 220.484 568.003 222.048Z" fill="#FFCC00"/>
<path d="M577.38 222.048C577.38 223.612 576.111 224.891 574.53 224.891C572.962 224.891 571.679 223.626 571.679 222.048C571.679 220.484 572.948 219.205 574.53 219.205C576.111 219.219 577.38 220.484 577.38 222.048Z" fill="#FFCC00"/>
<path d="M539.885 230.564C539.885 232.128 538.617 233.407 537.035 233.407C535.453 233.407 534.185 232.142 534.185 230.564C534.185 229 535.453 227.721 537.035 227.721C538.617 227.721 539.885 228.986 539.885 230.564Z" fill="#FFCC00"/>
<path d="M549.262 230.564C549.262 232.128 547.994 233.407 546.412 233.407C544.845 233.407 543.562 232.142 543.562 230.564C543.562 229 544.83 227.721 546.412 227.721C547.994 227.721 549.262 228.986 549.262 230.564Z" fill="#FFCC00"/>
<path d="M558.64 230.564C558.64 232.128 557.371 233.407 555.79 233.407C554.208 233.407 552.939 232.142 552.939 230.564C552.939 229 554.208 227.721 555.79 227.721C557.371 227.721 558.64 228.986 558.64 230.564Z" fill="#FFCC00"/>
<path d="M568.003 230.564C568.003 232.128 566.734 233.407 565.152 233.407C563.571 233.407 562.302 232.142 562.302 230.564C562.302 229 563.571 227.721 565.152 227.721C566.734 227.721 568.003 228.986 568.003 230.564Z" fill="#FFCC00"/>
<path d="M577.38 230.564C577.38 232.128 576.111 233.407 574.53 233.407C572.962 233.407 571.679 232.142 571.679 230.564C571.679 229 572.948 227.721 574.53 227.721C576.111 227.721 577.38 228.986 577.38 230.564Z" fill="#FFCC00"/>
<path d="M539.885 239.065C539.885 240.629 538.617 241.909 537.035 241.909C535.453 241.909 534.185 240.643 534.185 239.065C534.185 237.502 535.453 236.222 537.035 236.222C538.617 236.222 539.885 237.502 539.885 239.065Z" fill="#FFCC00"/>
<path d="M549.262 239.065C549.262 240.629 547.994 241.909 546.412 241.909C544.845 241.909 543.562 240.643 543.562 239.065C543.562 237.502 544.83 236.222 546.412 236.222C547.994 236.236 549.262 237.502 549.262 239.065Z" fill="#FFCC00"/>
<path d="M558.64 239.065C558.64 240.629 557.371 241.909 555.79 241.909C554.208 241.909 552.939 240.643 552.939 239.065C552.939 237.502 554.208 236.222 555.79 236.222C557.371 236.222 558.64 237.502 558.64 239.065Z" fill="#FFCC00"/>
<path d="M568.003 239.065C568.003 240.629 566.734 241.909 565.152 241.909C563.571 241.909 562.302 240.643 562.302 239.065C562.302 237.502 563.571 236.222 565.152 236.222C566.734 236.222 568.003 237.502 568.003 239.065Z" fill="#FFCC00"/>
<path d="M577.38 239.065C577.38 240.629 576.111 241.909 574.53 241.909C572.962 241.909 571.679 240.643 571.679 239.065C571.679 237.502 572.948 236.222 574.53 236.222C576.111 236.236 577.38 237.502 577.38 239.065Z" fill="#FFCC00"/>
<path d="M530.451 219.219H528.812V241.909H530.451V219.219Z" fill="#263238"/>
<path d="M581.798 172.773H434.712V206.666H581.798V172.773Z" fill="#37474F"/>
<path d="M524.622 178.375H440.897V181.232H524.622V178.375Z" fill="#455A64"/>
<path d="M524.622 183.336H440.897V186.194H524.622V183.336Z" fill="#455A64"/>
<path d="M524.622 188.284H440.897V191.141H524.622V188.284Z" fill="#455A64"/>
<path d="M524.622 193.245H440.897V196.103H524.622V193.245Z" fill="#455A64"/>
<path d="M524.622 198.207H440.897V201.064H524.622V198.207Z" fill="#455A64"/>
<path d="M539.885 181.204C539.885 182.768 538.617 184.047 537.035 184.047C535.453 184.047 534.185 182.782 534.185 181.204C534.185 179.64 535.453 178.361 537.035 178.361C538.617 178.361 539.885 179.64 539.885 181.204Z" fill="#FFCC00"/>
<path d="M549.262 181.204C549.262 182.768 547.994 184.047 546.412 184.047C544.845 184.047 543.562 182.782 543.562 181.204C543.562 179.64 544.83 178.361 546.412 178.361C547.994 178.375 549.262 179.64 549.262 181.204Z" fill="#FFCC00"/>
<path d="M558.64 181.204C558.64 182.768 557.371 184.047 555.79 184.047C554.208 184.047 552.939 182.782 552.939 181.204C552.939 179.64 554.208 178.361 555.79 178.361C557.371 178.361 558.64 179.64 558.64 181.204Z" fill="#FFCC00"/>
<path d="M568.003 181.204C568.003 182.768 566.734 184.047 565.152 184.047C563.571 184.047 562.302 182.782 562.302 181.204C562.302 179.64 563.571 178.361 565.152 178.361C566.734 178.361 568.003 179.64 568.003 181.204Z" fill="#FFCC00"/>
<path d="M577.38 181.204C577.38 182.768 576.111 184.047 574.53 184.047C572.962 184.047 571.679 182.782 571.679 181.204C571.679 179.64 572.948 178.361 574.53 178.361C576.111 178.375 577.38 179.64 577.38 181.204Z" fill="#FFCC00"/>
<path d="M537.049 192.563C538.623 192.563 539.9 191.29 539.9 189.72C539.9 188.149 538.623 186.876 537.049 186.876C535.475 186.876 534.199 188.149 534.199 189.72C534.199 191.29 535.475 192.563 537.049 192.563Z" fill="#FFCC00"/>
<path d="M549.262 189.72C549.262 191.283 547.994 192.563 546.412 192.563C544.845 192.563 543.562 191.298 543.562 189.72C543.562 188.142 544.83 186.876 546.412 186.876C547.994 186.876 549.262 188.156 549.262 189.72Z" fill="#FFCC00"/>
<path d="M555.79 192.563C557.364 192.563 558.64 191.29 558.64 189.72C558.64 188.149 557.364 186.876 555.79 186.876C554.215 186.876 552.939 188.149 552.939 189.72C552.939 191.29 554.215 192.563 555.79 192.563Z" fill="#FFCC00"/>
<path d="M568.003 189.72C568.003 191.283 566.734 192.563 565.152 192.563C563.571 192.563 562.302 191.298 562.302 189.72C562.302 188.142 563.571 186.876 565.152 186.876C566.734 186.876 568.003 188.156 568.003 189.72Z" fill="#FFCC00"/>
<path d="M577.38 189.72C577.38 191.283 576.111 192.563 574.53 192.563C572.962 192.563 571.679 191.298 571.679 189.72C571.679 188.142 572.948 186.876 574.53 186.876C576.111 186.876 577.38 188.156 577.38 189.72Z" fill="#FFCC00"/>
<path d="M537.049 201.064C538.623 201.064 539.9 199.791 539.9 198.221C539.9 196.651 538.623 195.378 537.049 195.378C535.475 195.378 534.199 196.651 534.199 198.221C534.199 199.791 535.475 201.064 537.049 201.064Z" fill="#FFCC00"/>
<path d="M549.262 198.221C549.262 199.785 547.994 201.064 546.412 201.064C544.845 201.064 543.562 199.799 543.562 198.221C543.562 196.643 544.83 195.378 546.412 195.378C547.994 195.392 549.262 196.657 549.262 198.221Z" fill="#FFCC00"/>
<path d="M555.79 201.064C557.364 201.064 558.64 199.791 558.64 198.221C558.64 196.651 557.364 195.378 555.79 195.378C554.215 195.378 552.939 196.651 552.939 198.221C552.939 199.791 554.215 201.064 555.79 201.064Z" fill="#FFCC00"/>
<path d="M568.003 198.221C568.003 199.785 566.734 201.064 565.152 201.064C563.571 201.064 562.302 199.799 562.302 198.221C562.302 196.643 563.571 195.378 565.152 195.378C566.734 195.378 568.003 196.657 568.003 198.221Z" fill="#FFCC00"/>
<path d="M577.38 198.221C577.38 199.785 576.111 201.064 574.53 201.064C572.962 201.064 571.679 199.799 571.679 198.221C571.679 196.643 572.948 195.378 574.53 195.378C576.111 195.392 577.38 196.657 577.38 198.221Z" fill="#FFCC00"/>
<path d="M530.451 178.375H528.812V201.065H530.451V178.375Z" fill="#263238"/>
<path d="M581.798 131.929H434.712V165.821H581.798V131.929Z" fill="#37474F"/>
<path d="M524.622 137.53H440.897V140.388H524.622V137.53Z" fill="#455A64"/>
<path d="M524.622 142.492H440.897V145.35H524.622V142.492Z" fill="#455A64"/>
<path d="M524.622 147.439H440.897V150.297H524.622V147.439Z" fill="#455A64"/>
<path d="M524.622 152.401H440.897V155.259H524.622V152.401Z" fill="#455A64"/>
<path d="M524.622 157.363H440.897V160.22H524.622V157.363Z" fill="#455A64"/>
<path d="M537.049 143.217C538.623 143.217 539.899 141.944 539.899 140.374C539.899 138.803 538.623 137.53 537.049 137.53C535.475 137.53 534.199 138.803 534.199 140.374C534.199 141.944 535.475 143.217 537.049 143.217Z" fill="#FFCC00"/>
<path d="M549.262 140.374C549.262 141.938 547.994 143.217 546.412 143.217C544.845 143.217 543.562 141.952 543.562 140.374C543.562 138.796 544.83 137.531 546.412 137.531C547.994 137.531 549.262 138.796 549.262 140.374Z" fill="#FFCC00"/>
<path d="M555.79 143.217C557.364 143.217 558.64 141.944 558.64 140.374C558.64 138.804 557.364 137.531 555.79 137.531C554.215 137.531 552.939 138.804 552.939 140.374C552.939 141.944 554.215 143.217 555.79 143.217Z" fill="#FFCC00"/>
<path d="M568.003 140.374C568.003 141.938 566.734 143.217 565.152 143.217C563.571 143.217 562.302 141.952 562.302 140.374C562.302 138.796 563.571 137.531 565.152 137.531C566.734 137.531 568.003 138.796 568.003 140.374Z" fill="#FFCC00"/>
<path d="M577.38 140.374C577.38 141.938 576.111 143.217 574.53 143.217C572.962 143.217 571.679 141.952 571.679 140.374C571.679 138.796 572.948 137.531 574.53 137.531C576.111 137.531 577.38 138.796 577.38 140.374Z" fill="#FFCC00"/>
<path d="M537.049 151.719C538.623 151.719 539.9 150.446 539.9 148.875C539.9 147.305 538.623 146.032 537.049 146.032C535.475 146.032 534.199 147.305 534.199 148.875C534.199 150.446 535.475 151.719 537.049 151.719Z" fill="#FFCC00"/>
<path d="M549.262 148.875C549.262 150.439 547.994 151.719 546.412 151.719C544.845 151.719 543.562 150.453 543.562 148.875C543.562 147.297 544.83 146.032 546.412 146.032C547.994 146.046 549.262 147.312 549.262 148.875Z" fill="#FFCC00"/>
<path d="M555.79 151.719C557.364 151.719 558.64 150.446 558.64 148.875C558.64 147.305 557.364 146.032 555.79 146.032C554.215 146.032 552.939 147.305 552.939 148.875C552.939 150.446 554.215 151.719 555.79 151.719Z" fill="#FFCC00"/>
<path d="M568.003 148.875C568.003 150.439 566.734 151.719 565.152 151.719C563.571 151.719 562.302 150.453 562.302 148.875C562.302 147.297 563.571 146.032 565.152 146.032C566.734 146.032 568.003 147.312 568.003 148.875Z" fill="#FFCC00"/>
<path d="M577.38 148.875C577.38 150.439 576.111 151.719 574.53 151.719C572.962 151.719 571.679 150.453 571.679 148.875C571.679 147.297 572.948 146.032 574.53 146.032C576.111 146.046 577.38 147.312 577.38 148.875Z" fill="#FFCC00"/>
<path d="M539.885 157.391C539.885 158.955 538.617 160.234 537.035 160.234C535.453 160.234 534.185 158.969 534.185 157.391C534.185 155.827 535.453 154.548 537.035 154.548C538.617 154.548 539.885 155.813 539.885 157.391Z" fill="#FFCC00"/>
<path d="M549.262 157.391C549.262 158.955 547.994 160.234 546.412 160.234C544.845 160.234 543.562 158.969 543.562 157.391C543.562 155.827 544.83 154.548 546.412 154.548C547.994 154.548 549.262 155.813 549.262 157.391Z" fill="#FFCC00"/>
<path d="M558.64 157.391C558.64 158.955 557.371 160.234 555.79 160.234C554.208 160.234 552.939 158.969 552.939 157.391C552.939 155.827 554.208 154.548 555.79 154.548C557.371 154.548 558.64 155.813 558.64 157.391Z" fill="#FFCC00"/>
<path d="M568.003 157.391C568.003 158.955 566.734 160.234 565.152 160.234C563.571 160.234 562.302 158.969 562.302 157.391C562.302 155.827 563.571 154.548 565.152 154.548C566.734 154.548 568.003 155.813 568.003 157.391Z" fill="#FFCC00"/>
<path d="M577.38 157.391C577.38 158.955 576.111 160.234 574.53 160.234C572.962 160.234 571.679 158.969 571.679 157.391C571.679 155.827 572.948 154.548 574.53 154.548C576.111 154.548 577.38 155.813 577.38 157.391Z" fill="#FFCC00"/>
<path d="M530.451 137.53H528.812V160.22H530.451V137.53Z" fill="#263238"/>
<path d="M581.798 91.0845H434.712V124.977H581.798V91.0845Z" fill="#37474F"/>
<path d="M524.622 96.6859H440.897V99.5434H524.622V96.6859Z" fill="#455A64"/>
<path d="M524.622 101.647H440.897V104.505H524.622V101.647Z" fill="#455A64"/>
<path d="M524.622 106.609H440.897V109.467H524.622V106.609Z" fill="#455A64"/>
<path d="M524.622 111.556H440.897V114.414H524.622V111.556Z" fill="#455A64"/>
<path d="M524.622 116.518H440.897V119.375H524.622V116.518Z" fill="#455A64"/>
<path d="M539.885 99.5292C539.885 101.093 538.617 102.372 537.035 102.372C535.453 102.372 534.185 101.107 534.185 99.5292C534.185 97.9653 535.453 96.6859 537.035 96.6859C538.617 96.6859 539.885 97.9653 539.885 99.5292Z" fill="#FFCC00"/>
<path d="M549.262 99.5291C549.262 101.093 547.994 102.372 546.412 102.372C544.845 102.372 543.562 101.107 543.562 99.5291C543.562 97.9653 544.83 96.6858 546.412 96.6858C547.994 96.6858 549.262 97.9653 549.262 99.5291Z" fill="#FFCC00"/>
<path d="M558.64 99.5291C558.64 101.093 557.371 102.372 555.79 102.372C554.208 102.372 552.939 101.107 552.939 99.5291C552.939 97.9653 554.208 96.6858 555.79 96.6858C557.371 96.6858 558.64 97.9653 558.64 99.5291Z" fill="#FFCC00"/>
<path d="M568.003 99.5291C568.003 101.093 566.734 102.372 565.152 102.372C563.571 102.372 562.302 101.107 562.302 99.5291C562.302 97.9653 563.571 96.6858 565.152 96.6858C566.734 96.6858 568.003 97.9653 568.003 99.5291Z" fill="#FFCC00"/>
<path d="M577.38 99.5291C577.38 101.093 576.111 102.372 574.53 102.372C572.962 102.372 571.679 101.107 571.679 99.5291C571.679 97.9653 572.948 96.6858 574.53 96.6858C576.111 96.6858 577.38 97.9653 577.38 99.5291Z" fill="#FFCC00"/>
<path d="M539.885 108.031C539.885 109.595 538.617 110.874 537.035 110.874C535.453 110.874 534.185 109.609 534.185 108.031C534.185 106.467 535.453 105.187 537.035 105.187C538.617 105.187 539.885 106.467 539.885 108.031Z" fill="#FFCC00"/>
<path d="M549.262 108.031C549.262 109.595 547.994 110.874 546.412 110.874C544.845 110.874 543.562 109.609 543.562 108.031C543.562 106.467 544.83 105.187 546.412 105.187C547.994 105.202 549.262 106.467 549.262 108.031Z" fill="#FFCC00"/>
<path d="M558.64 108.031C558.64 109.595 557.371 110.874 555.79 110.874C554.208 110.874 552.939 109.609 552.939 108.031C552.939 106.467 554.208 105.187 555.79 105.187C557.371 105.187 558.64 106.467 558.64 108.031Z" fill="#FFCC00"/>
<path d="M568.003 108.031C568.003 109.595 566.734 110.874 565.152 110.874C563.571 110.874 562.302 109.609 562.302 108.031C562.302 106.467 563.571 105.187 565.152 105.187C566.734 105.187 568.003 106.467 568.003 108.031Z" fill="#FFCC00"/>
<path d="M577.38 108.031C577.38 109.595 576.111 110.874 574.53 110.874C572.962 110.874 571.679 109.609 571.679 108.031C571.679 106.467 572.948 105.187 574.53 105.187C576.111 105.202 577.38 106.467 577.38 108.031Z" fill="#FFCC00"/>
<path d="M539.885 116.546C539.885 118.11 538.617 119.39 537.035 119.39C535.453 119.39 534.185 118.124 534.185 116.546C534.185 114.983 535.453 113.703 537.035 113.703C538.617 113.703 539.885 114.983 539.885 116.546Z" fill="#FFCC00"/>
<path d="M549.262 116.546C549.262 118.11 547.994 119.39 546.412 119.39C544.845 119.39 543.562 118.124 543.562 116.546C543.562 114.983 544.83 113.703 546.412 113.703C547.994 113.703 549.262 114.983 549.262 116.546Z" fill="#FFCC00"/>
<path d="M558.64 116.546C558.64 118.11 557.371 119.39 555.79 119.39C554.208 119.39 552.939 118.124 552.939 116.546C552.939 114.983 554.208 113.703 555.79 113.703C557.371 113.703 558.64 114.983 558.64 116.546Z" fill="#FFCC00"/>
<path d="M568.003 116.546C568.003 118.11 566.734 119.39 565.152 119.39C563.571 119.39 562.302 118.124 562.302 116.546C562.302 114.983 563.571 113.703 565.152 113.703C566.734 113.703 568.003 114.983 568.003 116.546Z" fill="#FFCC00"/>
<path d="M577.38 116.546C577.38 118.11 576.111 119.39 574.53 119.39C572.962 119.39 571.679 118.124 571.679 116.546C571.679 114.983 572.948 113.703 574.53 113.703C576.111 113.703 577.38 114.983 577.38 116.546Z" fill="#FFCC00"/>
<path d="M530.451 96.6859H528.812V119.376H530.451V96.6859Z" fill="#263238"/>
<path d="M572.275 79.8123H378.389V90.56H572.275V79.8123Z" fill="#37474F"/>
<path d="M365.851 287.16H344.203V308.755H365.851V287.16Z" fill="#263238"/>
<path d="M48.0089 244.041H10.158V281.801H48.0089V244.041Z" fill="#37474F"/>
<path d="M29.0834 275.517C36.0646 275.517 41.7241 269.871 41.7241 262.907C41.7241 255.942 36.0646 250.297 29.0834 250.297C22.1021 250.297 16.4426 255.942 16.4426 262.907C16.4426 269.871 22.1021 275.517 29.0834 275.517Z" fill="#455A64"/>
<path d="M26.7747 257.817H23.9244V268.224H26.7747V257.817Z" fill="#263238"/>
<path d="M34.6984 257.817H31.8481V268.224H34.6984V257.817Z" fill="#263238"/>
<path d="M0.737915 340.501L76.682 340.16L152.626 340.032L304.5 339.791L456.374 340.032L532.318 340.16L608.262 340.501L532.318 340.857L456.374 340.971L304.5 341.212L152.626 340.971L76.682 340.857L0.737915 340.501Z" fill="#263238"/>
<path d="M130.751 304.86C132.133 307.86 126.689 329.469 124.993 333.891C123.283 338.326 117.312 363.077 114.405 364.144C111.497 365.21 97.4031 364.911 95.4079 364.144C93.4128 363.376 95.4079 359.154 97.7024 357.675C99.9968 356.196 102.733 353.922 102.733 353.922C102.733 353.922 98.6144 315.693 99.384 311.414C100.154 307.163 127.045 296.771 130.751 304.86Z" fill="#FFCC00"/>
<path opacity="0.1" d="M130.751 304.86C132.133 307.86 126.689 329.469 124.993 333.891C123.283 338.326 117.312 363.077 114.405 364.144C111.497 365.21 97.4031 364.911 95.4079 364.144C93.4128 363.376 95.4079 359.154 97.7024 357.675C99.9968 356.196 102.733 353.922 102.733 353.922C102.733 353.922 98.6144 315.693 99.384 311.414C100.154 307.163 127.045 296.771 130.751 304.86Z" fill="black"/>
<path opacity="0.1" d="M101.279 362.494C101.436 361.741 101.75 361.001 102.206 360.376C102.662 359.75 103.203 359.196 103.83 358.741C104.415 358.315 105.127 357.888 105.854 357.76C105.954 357.746 106.025 357.86 105.94 357.931C105.683 358.172 105.398 358.357 105.156 358.599C104.913 358.841 104.657 359.096 104.415 359.352C103.944 359.85 103.56 360.404 103.203 361.001C102.847 361.599 102.519 362.196 102.22 362.807C101.921 363.433 101.735 364.101 101.493 364.755C101.45 364.883 101.251 364.897 101.222 364.755C101.037 364.001 101.123 363.233 101.279 362.494Z" fill="black"/>
<path opacity="0.1" d="M97.1609 360.248C97.9019 358.869 99.1988 357.888 100.61 357.248C100.695 357.206 100.795 357.319 100.709 357.39C99.6691 358.286 98.643 359.253 97.9874 360.475C97.3319 361.684 96.9756 363.191 97.4459 364.527C97.4744 364.584 97.3746 364.612 97.3461 364.57C96.4341 363.29 96.4341 361.599 97.1609 360.248Z" fill="black"/>
<path opacity="0.1" d="M100.624 332.511L119.991 350.794C122.129 343.785 124.124 336.165 124.993 333.905C126.703 329.469 132.133 307.874 130.765 304.86C127.045 296.771 100.154 307.163 99.3983 311.442C99.042 313.461 99.7545 322.986 100.624 332.511Z" fill="black"/>
<path d="M203.901 326.469C204.685 327.209 212.31 320.015 213.478 316.646C214.647 313.276 209.773 303.765 210.671 302.145C211.569 300.524 215.73 299.23 217.882 301.718C220.034 304.206 225.563 317.84 224.409 323.669C223.254 329.498 211.497 342.52 210.272 342.449C209.032 342.392 203.901 326.469 203.901 326.469Z" fill="#FFCC00"/>
<path opacity="0.1" d="M203.901 326.469C203.901 326.469 209.046 342.392 210.272 342.449C211.17 342.491 217.697 335.554 221.587 329.54L210.913 320.555C208.22 323.74 204.443 326.981 203.901 326.469Z" fill="black"/>
<path d="M160.835 260.703H97.5598C97.5598 260.703 92.8569 302.273 93.3699 307.775C93.883 313.276 121.687 354.036 130.323 359.296C139.073 364.627 188.51 364.812 200.567 362.167C209.944 360.106 217.768 348.178 213.877 329.782C212.181 321.749 190.206 302.585 187.142 298.918C184.064 295.235 160.835 260.703 160.835 260.703Z" fill="#C7C7C7"/>
<path d="M93.37 307.775C93.8831 313.276 121.687 354.036 130.323 359.296C139.073 364.627 188.496 364.812 200.567 362.167C209.93 360.106 217.768 348.164 213.863 329.768C212.167 321.735 190.206 302.571 187.142 298.903C185.261 296.657 175.827 282.839 168.787 272.46C164.326 265.892 160.835 260.703 160.835 260.703H97.5598C97.5598 260.703 96.377 271.138 95.2654 282.241C94.1538 293.302 93.1135 305.031 93.37 307.775Z" fill="#FFCC00"/>
<path opacity="0.1" d="M95.2654 282.241C129.268 292.705 159.509 277.82 168.787 272.46C164.326 265.892 160.835 260.703 160.835 260.703H97.5598C97.5598 260.703 96.377 271.138 95.2654 282.241Z" fill="black"/>
<path d="M201.764 327.778C201.764 327.778 184.349 316.873 172.136 318.849C159.923 320.826 155.619 345.833 161.462 359.921C161.462 359.921 150.318 363.22 150.318 368.593C150.318 371.65 156.688 372.631 165.865 372.404C175.057 372.19 193.313 372.005 193.712 369.702C194.111 367.399 192.515 364.229 192.515 364.229C192.515 364.229 209.003 362.381 212.238 351.477C215.473 340.572 204.514 329.611 201.764 327.778Z" fill="#FFCC00"/>
<path opacity="0.1" d="M177.979 361.144C182.596 363.12 187.641 364.072 192.643 364.399C192.743 364.399 192.771 364.57 192.657 364.57C187.484 365.153 182.411 363.859 177.922 361.258C177.865 361.229 177.908 361.101 177.979 361.144Z" fill="black"/>
<path opacity="0.1" d="M157.486 372.46C157.942 370.385 159.566 368.736 161.277 367.57C162.274 366.888 163.357 366.347 164.497 365.949C165.808 365.509 167.148 365.267 168.459 364.855C168.573 364.826 168.644 364.983 168.53 365.011C167.405 365.395 166.307 365.963 165.253 366.518C164.198 367.072 163.158 367.684 162.174 368.352C160.464 369.503 159.167 371.01 157.913 372.617C157.785 372.802 157.429 372.702 157.486 372.46Z" fill="black"/>
<path opacity="0.1" d="M159.737 363.831C159.852 363.816 159.894 363.959 159.78 364.001C156.417 365.238 153.724 368.195 152.284 371.422C152.227 371.564 151.971 371.564 151.999 371.38C152.441 367.385 155.847 364.399 159.737 363.831Z" fill="black"/>
<path opacity="0.1" d="M154.308 363.049C154.265 363.077 154.336 363.134 154.379 363.12C154.664 363.063 157.785 360.973 161.234 359.978C161.519 360.476 161.818 360.973 162.146 361.457C162.203 361.556 162.36 361.471 162.303 361.371C160.137 357.035 159.267 352.145 159.253 347.325C159.239 344.766 159.438 342.179 159.709 339.634C159.695 339.62 159.695 339.606 159.709 339.591C160.365 335.099 161.661 330.706 163.842 326.768C165.167 324.323 166.877 321.963 169.215 320.598C171.552 319.247 174.473 319.034 177.266 319.148C180.102 319.29 182.924 319.901 185.675 320.697C188.439 321.451 191.161 322.446 193.826 323.569C188.739 320.84 183.223 318.693 177.352 318.067C174.43 317.783 171.309 317.982 168.573 319.475C165.865 321.024 164.027 323.527 162.588 326.071C159.823 331.303 158.455 337.132 158.213 342.961C158.184 343.629 158.156 344.311 158.156 344.979C158.156 344.994 158.156 344.994 158.156 345.008C158.113 345.904 158.099 346.785 158.127 347.681C158.241 351.889 159.096 356.111 161.134 359.807C158.042 360.433 156.246 361.314 154.308 363.049Z" fill="black"/>
<path d="M151.201 310.22C152.583 313.22 147.14 334.829 145.444 339.25C143.734 343.686 137.762 368.437 134.855 369.503C131.948 370.569 117.854 370.271 115.858 369.503C113.863 368.736 115.858 364.513 118.153 363.035C120.447 361.556 123.183 359.281 123.183 359.281C123.183 359.281 119.065 321.053 119.834 316.774C120.604 312.509 147.496 302.116 151.201 310.22Z" fill="#FFCC00"/>
<path opacity="0.1" d="M141.71 351.249C143.007 347.353 144.703 343.586 145.999 339.691C146.056 339.534 146.299 339.605 146.242 339.762C145.244 342.889 144.475 346.102 143.548 349.259C143.676 349.045 143.805 348.832 143.947 348.619C144.76 347.368 145.771 346.131 146.185 344.681C146.227 344.524 146.484 344.595 146.427 344.752C146.242 345.434 145.914 346.031 145.586 346.657C145.216 347.353 144.831 348.05 144.46 348.747C143.976 349.657 143.434 350.538 142.893 351.405C142.878 351.462 142.85 351.533 142.836 351.59C141.539 355.5 140.242 359.395 138.518 363.134C138.432 363.333 138.133 363.262 138.176 363.034C139.088 359.025 140.399 355.144 141.71 351.249Z" fill="black"/>
<path opacity="0.1" d="M119.307 322.887C119.307 322.802 119.464 322.787 119.478 322.873C119.891 325.773 120.062 328.701 120.362 331.616C120.661 334.644 121.032 337.658 121.374 340.686C122.043 346.7 123.041 352.699 123.525 358.727C123.54 358.983 123.084 359.011 123.027 358.77C121.431 352.955 120.732 346.97 120.105 341.027C119.792 338.07 119.606 335.113 119.464 332.156C119.293 329.085 119.122 325.972 119.307 322.887Z" fill="black"/>
<path opacity="0.1" d="M121.046 367.541C121.202 366.788 121.516 366.048 121.972 365.423C122.428 364.797 122.97 364.243 123.597 363.788C124.181 363.361 124.894 362.935 125.62 362.807C125.72 362.793 125.791 362.907 125.706 362.978C125.449 363.219 125.164 363.404 124.922 363.646C124.68 363.887 124.423 364.143 124.181 364.399C123.711 364.897 123.326 365.451 122.97 366.048C122.613 366.646 122.286 367.243 121.986 367.854C121.687 368.479 121.502 369.148 121.259 369.802C121.217 369.93 121.017 369.944 120.989 369.802C120.789 369.048 120.889 368.28 121.046 367.541Z" fill="black"/>
<path opacity="0.1" d="M116.913 365.295C117.654 363.916 118.951 362.935 120.362 362.295C120.447 362.253 120.547 362.366 120.461 362.437C119.421 363.333 118.395 364.3 117.739 365.522C117.084 366.731 116.728 368.238 117.198 369.574C117.226 369.631 117.127 369.659 117.098 369.617C116.2 368.337 116.186 366.645 116.913 365.295Z" fill="black"/>
<path d="M121.772 202.913C122.457 200.425 116.215 191.596 113.849 188.639C111.469 185.668 98.3722 181.218 94.1824 183.507C92.5435 184.403 89.4937 190.686 85.3752 196.131C79.0049 204.576 71.5516 213.419 74.2593 215.807C80.8291 221.593 95.7927 212.466 100.652 209.41C105.512 206.339 109.958 202.614 111.141 202.742C112.709 202.913 115.987 205.386 117.298 205.528C120.404 205.87 121.772 202.913 121.772 202.913Z" fill="#FFCC00"/>
<path opacity="0.1" d="M121.772 202.913C122.457 200.425 116.215 191.596 113.849 188.639C111.469 185.668 98.3722 181.218 94.1824 183.507C92.5435 184.403 89.4937 190.686 85.3752 196.131C79.0049 204.576 71.5516 213.419 74.2593 215.807C80.8291 221.593 95.7927 212.466 100.652 209.41C105.512 206.339 109.958 202.614 111.141 202.742C112.709 202.913 115.987 205.386 117.298 205.528C120.404 205.87 121.772 202.913 121.772 202.913Z" fill="black"/>
<path d="M151.942 194.07C167.234 203.183 174.017 227.45 174.43 231.332C174.772 234.502 182.055 245.69 180.758 257.732C179.917 265.48 165.979 275.759 154.636 275.659C152.541 275.645 134.884 282.028 119.977 281.005C105.07 279.981 93.7549 269.418 93.3274 268.522C92.8856 267.627 80.8007 265.878 80.0454 253.453C78.834 233.606 99.1418 199.771 104.956 195.15C114.562 187.488 141.553 187.871 151.942 194.07Z" fill="#FFCC00"/>
<path d="M144.745 204.533C144.446 201.832 152.398 193.714 155.348 191.027C158.312 188.341 172.649 185.895 176.611 188.966C178.164 190.174 180.288 197.183 183.651 203.538C188.853 213.348 195.123 223.768 191.917 225.801C184.135 230.72 170.127 218.764 165.595 214.783C161.063 210.803 157.073 206.197 155.833 206.14C154.18 206.054 150.36 208.073 148.978 208.002C145.672 207.832 144.745 204.533 144.745 204.533Z" fill="#FFCC00"/>
<path opacity="0.1" d="M144.745 204.533C144.446 201.832 152.398 193.714 155.348 191.027C158.312 188.341 172.649 185.895 176.611 188.966C178.164 190.174 180.288 197.183 183.651 203.538C188.853 213.348 195.123 223.768 191.917 225.801C184.135 230.72 170.127 218.764 165.595 214.783C161.063 210.803 157.073 206.197 155.833 206.14C154.18 206.054 150.36 208.073 148.978 208.002C145.672 207.832 144.745 204.533 144.745 204.533Z" fill="black"/>
<path opacity="0.1" d="M116.813 238.625C126.19 238.71 130.466 248.733 131.592 251.335C132.717 253.95 138.503 259.921 138.66 266.163C138.817 272.404 126.931 279.37 114.376 277.18C101.892 274.991 95.2655 267.968 95.3368 261.627C95.3938 256.524 100.211 252.102 100.752 250.752C101.294 249.401 108.277 238.54 116.813 238.625Z" fill="black"/>
<path opacity="0.1" d="M139.871 256.225C141.125 257.647 142.18 259.225 143.021 260.931C143.876 262.637 144.531 264.442 144.859 266.362C145.158 268.267 145.144 270.357 144.246 272.19C143.819 273.1 143.178 273.896 142.422 274.536C141.638 275.133 140.769 275.574 139.871 275.844C141.453 274.792 142.679 273.413 143.22 271.764C143.79 270.129 143.748 268.338 143.448 266.589C143.178 264.826 142.608 263.092 141.995 261.372C141.353 259.651 140.655 257.931 139.871 256.225Z" fill="black"/>
<path opacity="0.1" d="M96.9044 252.486C96.0921 253.495 95.3225 254.476 94.6099 255.471C93.9259 256.481 93.2418 257.49 92.8001 258.571C92.3155 259.637 92.0448 260.76 91.9735 261.926C91.9307 263.106 92.2443 264.257 92.6433 265.494C91.7597 264.57 91.0329 263.362 90.8762 261.997C90.7051 260.632 90.9759 259.239 91.5032 258.002C92.0447 256.765 92.8428 255.685 93.7691 254.761C94.6812 253.837 95.7215 253.026 96.9044 252.486Z" fill="black"/>
<path d="M243.42 386.378C228.057 386.378 211.127 386.123 194.097 385.796C185.318 385.639 178.378 385.511 174.06 385.511C151.942 385.511 145.572 357.135 139.415 329.711C138.56 325.887 137.691 322.062 136.793 318.295C135.04 310.959 133.587 303.538 132.176 296.373C127.829 274.181 124.081 255.031 114.291 253.979C101.336 252.6 89.8073 271.92 85.6032 302.074L82.7815 301.676C87.2136 269.887 99.9968 249.558 114.59 251.136C126.475 252.401 130.409 272.517 134.969 295.818C136.366 302.969 137.819 310.348 139.558 317.627C140.456 321.394 141.325 325.247 142.18 329.071C148.365 356.623 154.208 382.654 174.046 382.654C178.406 382.654 185.347 382.782 194.14 382.938C213.407 383.293 239.786 383.791 262.117 383.35C298.344 382.64 302.633 379.796 303.075 378.929C303.061 373.015 264.825 365.892 250.431 363.22C235.881 360.504 235.311 360.405 235.482 358.628C235.624 357.035 237.406 357.035 240.099 357.035H299.868C318.623 357.035 324.651 330.123 328.271 314.058C329.311 309.452 330.123 305.799 331.021 303.922C335.211 295.221 345.814 296.487 346.256 296.544L345.885 299.358C345.515 299.316 336.878 298.306 333.586 305.145C332.817 306.737 331.99 310.405 331.036 314.67C327.245 331.573 320.889 359.879 299.854 359.879H247.952C248.921 360.063 249.918 360.248 250.93 360.433C285.731 366.916 305.882 372.034 305.882 379.043C305.882 379.554 305.726 380.322 304.956 381.076C300.766 385.227 275.585 386.378 243.42 386.378Z" fill="#263238"/>
<path d="M93.2385 299.998L75.7697 298.954L75.1416 309.413L92.6104 310.457L93.2385 299.998Z" fill="#455A64"/>
<path d="M90.1485 296.483L79.2518 295.832L79.0524 299.153L89.9491 299.804L90.1485 296.483Z" fill="#37474F"/>
<path d="M80.9325 309.758L78.8699 309.635L78.3909 317.61L80.4536 317.733L80.9325 309.758Z" fill="#FFCC00"/>
<path d="M88.8278 310.226L86.7793 310.104L86.3004 318.079L88.3488 318.202L88.8278 310.226Z" fill="#FFCC00"/>
<path d="M351.602 289.237V306.695H359.255V289.237H351.602Z" fill="#455A64"/>
<path d="M345.43 292.52V303.41H351.615V292.52H345.43Z" fill="#37474F"/>
<path d="M104.913 253.794C104.913 253.794 108.633 258.087 110.072 257.177C111.512 256.268 115.117 247.809 115.117 247.809C115.117 247.809 115.972 258.571 118.765 258.855C121.544 259.154 126.304 254.903 126.304 254.903L115.06 247.126L104.913 253.794Z" fill="#FFCC00"/>
<path opacity="0.1" d="M104.913 253.794C104.913 253.794 108.633 258.087 110.072 257.177C111.512 256.268 115.117 247.809 115.117 247.809C115.117 247.809 115.972 258.571 118.765 258.855C121.544 259.154 126.304 254.903 126.304 254.903L115.06 247.126L104.913 253.794Z" fill="black"/>
<path opacity="0.1" d="M160.065 240.444C161.162 237.032 161.562 233.379 161.219 229.725C161.063 227.891 160.621 226.057 159.923 224.28C159.566 223.399 159.11 222.546 158.555 221.735C158.013 220.925 157.372 220.157 156.645 219.489C156.289 219.148 155.89 218.849 155.476 218.551C155.063 218.266 154.65 218.039 154.222 217.797L153.581 217.442L152.911 217.172C152.455 217.001 152.028 216.774 151.543 216.66C149.676 216.106 147.738 215.949 145.871 216.12C142.123 216.447 138.631 217.897 135.781 220.086C139.145 218.892 142.593 218.138 145.942 218.224C147.61 218.309 149.249 218.494 150.745 219.077C151.13 219.191 151.472 219.39 151.842 219.546L152.384 219.788L152.897 220.1C153.239 220.314 153.595 220.498 153.909 220.726C154.222 220.968 154.521 221.195 154.806 221.465C155.975 222.489 156.887 223.825 157.571 225.304C158.298 226.768 158.754 228.389 159.139 230.038C159.837 233.379 160.065 236.876 160.065 240.444Z" fill="black"/>
<path opacity="0.1" d="M90.5483 233.18C90.7763 230.137 91.2039 227.18 92.0447 224.437C92.8998 221.707 94.2679 219.205 96.3913 217.669C96.9043 217.271 97.4886 216.973 98.0729 216.688C98.6287 216.447 99.2272 216.276 99.8685 216.191C101.165 216.006 102.576 216.091 103.987 216.276C106.837 216.717 109.702 217.57 112.623 218.508C111.455 217.499 110.144 216.674 108.79 215.935C108.106 215.58 107.407 215.238 106.681 214.94C105.954 214.655 105.213 214.385 104.443 214.172C102.918 213.731 101.279 213.49 99.5693 213.632C98.7142 213.717 97.8449 213.902 97.0041 214.257C96.2203 214.613 95.4649 215.011 94.7809 215.551C93.3985 216.575 92.3155 217.954 91.5602 219.404C90.7906 220.868 90.3203 222.432 90.0638 223.996C89.5507 227.095 89.7218 230.237 90.5483 233.18Z" fill="black"/>
<path d="M136.85 235.98C136.893 235.824 137.206 236.194 137.192 236.379C136.85 240.658 137.263 245.619 141.467 247.24C141.596 247.297 141.567 247.51 141.41 247.482C136.252 246.572 135.781 239.99 136.85 235.98Z" fill="#263238"/>
<path d="M141.268 231.687C148.878 231.488 148.864 245.363 141.824 245.534C134.883 245.705 134.883 231.843 141.268 231.687Z" fill="#263238"/>
<path d="M107.45 232.611C107.436 232.441 107.065 232.782 107.051 232.952C106.78 237.246 105.697 242.094 101.308 243.103C101.165 243.131 101.165 243.345 101.322 243.345C106.581 243.188 107.963 236.734 107.45 232.611Z" fill="#263238"/>
<path d="M103.688 227.749C96.1775 226.498 94.2536 240.231 101.208 241.383C108.063 242.52 109.987 228.801 103.688 227.749Z" fill="#263238"/>
<path d="M114.832 247.425C116.186 247.866 125.563 244.894 124.851 242.065C124.081 238.994 110.87 238.269 109.217 240.26C107.564 242.264 113.421 246.97 114.832 247.425Z" fill="#263238"/>
<path d="M126.546 254.775C125.036 255.869 123.483 256.936 121.772 257.746C120.932 258.144 119.991 258.5 119.179 258.485C118.637 258.585 118.181 257.86 117.882 257.163C117.255 255.742 116.956 254.178 116.685 252.628C116.4 251.078 116.243 249.5 116.086 247.937L115.644 243.615L114.348 247.809C113.949 249.102 113.478 250.396 113.008 251.676C112.509 252.955 111.996 254.235 111.326 255.429C111.155 255.727 110.97 256.012 110.771 256.282C110.571 256.552 110.343 256.822 110.115 256.964C109.958 257.092 109.659 257.092 109.317 257.049C108.989 256.964 108.633 256.822 108.305 256.623C106.98 255.841 105.911 254.718 104.913 253.595C105.612 254.846 106.438 256.069 107.778 257.106C108.106 257.362 108.533 257.59 109.018 257.746C109.288 257.803 109.545 257.888 109.858 257.86C110.129 257.874 110.528 257.775 110.771 257.647C111.255 257.391 111.54 257.092 111.825 256.794C112.096 256.495 112.324 256.182 112.538 255.869C113.393 254.633 114.006 253.339 114.576 252.045C115.16 250.751 115.63 249.444 116.072 248.107L114.333 247.979C114.433 249.6 114.69 251.178 114.989 252.784C115.131 253.581 115.345 254.377 115.587 255.173C115.844 255.969 116.1 256.765 116.528 257.547C116.756 257.945 116.984 258.329 117.369 258.713C117.568 258.898 117.796 259.097 118.138 259.253C118.309 259.324 118.495 259.395 118.723 259.409C118.951 259.452 119.065 259.409 119.25 259.409C120.547 259.31 121.459 258.798 122.328 258.315C123.981 257.291 125.349 256.083 126.546 254.775Z" fill="#263238"/>
<path d="M54.9635 303.965C57.8137 303.737 60.6354 303.837 63.4572 304.007C66.2789 304.22 69.0863 304.505 71.8653 305.116C69.0151 305.344 66.1934 305.244 63.3717 305.073C60.5642 304.874 57.7567 304.576 54.9635 303.965Z" fill="#263238"/>
<path d="M95.9923 312.964C98.7 313.859 101.265 315.039 103.788 316.29C106.296 317.57 108.776 318.92 111.098 320.57C108.391 319.674 105.826 318.494 103.303 317.243C100.795 315.963 98.3152 314.599 95.9923 312.964Z" fill="#263238"/>
<path d="M64.0128 332.511C65.3809 330.009 66.9913 327.692 68.6729 325.432C70.3831 323.185 72.1502 320.996 74.1881 318.991C72.8342 321.494 71.2096 323.811 69.528 326.071C67.8179 328.318 66.0507 330.507 64.0128 332.511Z" fill="#263238"/>
<path d="M47.9946 287.16C50.1893 287.857 52.3412 288.667 54.4931 289.492C56.645 290.302 58.7542 291.198 60.8776 292.079C62.9868 292.989 65.0959 293.913 67.1623 294.894C69.243 295.875 71.3094 296.87 73.3331 297.979C71.1384 297.283 68.9865 296.472 66.8346 295.648C64.6827 294.837 62.5735 293.942 60.4501 293.06C58.3409 292.15 56.2318 291.226 54.1653 290.245C52.0989 289.25 50.0183 288.255 47.9946 287.16Z" fill="#263238"/>
<path d="M98.0444 299.756C100.04 298.704 102.12 297.965 104.229 297.311C106.353 296.671 108.49 296.117 110.728 295.875C108.733 296.927 106.652 297.667 104.543 298.321C102.42 298.96 100.282 299.515 98.0444 299.756Z" fill="#263238"/>
<path d="M77.5515 292.563C76.3829 290.715 75.3283 288.824 74.2737 286.919C73.2192 285.014 72.2359 283.08 71.2525 281.147C70.2977 279.199 69.3429 277.251 68.4593 275.261C67.5615 273.285 66.6922 271.295 65.9226 269.247C67.0912 271.096 68.1458 272.986 69.2004 274.891C70.2549 276.796 71.2383 278.73 72.2216 280.663C73.1764 282.611 74.1312 284.559 75.0148 286.549C75.9126 288.525 76.7819 290.516 77.5515 292.563Z" fill="#263238"/>
<path d="M106.41 337.53C105.142 336.08 103.959 334.559 102.804 333.023C101.636 331.502 100.538 329.938 99.4269 328.36C98.3438 326.782 97.2607 325.19 96.2631 323.555C95.237 321.934 94.2395 320.299 93.3274 318.593C94.5957 320.043 95.7786 321.565 96.9329 323.1C98.1015 324.621 99.1988 326.199 100.31 327.763C101.394 329.355 102.462 330.933 103.474 332.568C104.5 334.189 105.498 335.824 106.41 337.53Z" fill="#263238"/>
<path d="M504.155 79.8122H386.356L377.235 0H495.034L504.155 79.8122Z" fill="#A6A6A6"/>
<path d="M497.89 74.8463H391.705L383.81 5.73914H489.995L497.89 74.8463Z" fill="white"/>
<path d="M432.159 41.7116L430.463 43.7303L413.76 29.3431L415.456 27.3386L432.159 41.7116Z" fill="#FFCC00"/>
<path d="M427.855 27.3385L430.192 29.3431L418.064 43.7303L415.727 41.7115L427.855 27.3385Z" fill="#FFCC00"/>
<path d="M467.872 41.7115L466.176 43.7303L449.474 29.3431L451.17 27.3385L467.872 41.7115Z" fill="#FFCC00"/>
<path d="M463.568 27.3384L465.905 29.343L453.778 43.7302L451.44 41.7115L463.568 27.3384Z" fill="#FFCC00"/>
<path d="M411.623 55.5444L411.167 52.701H475.909L476.365 55.5444H411.623Z" fill="#FFCC00"/>
<path d="M538.728 74.4668H387.182V79.8265H538.728V74.4668Z" fill="#A6A6A6"/>
<path d="M551.526 74.4668H420.102V79.8265H551.526V74.4668Z" fill="#C7C7C7"/>
<path d="M490.232 8.71484L489.847 5.35971H383.662L384.047 8.71484H490.232Z" fill="#263238"/>
<path d="M392.597 7.03726C392.654 7.4922 393.025 7.87605 393.438 7.87605C393.851 7.87605 394.151 7.50641 394.094 7.03726C394.037 6.58233 393.666 6.19849 393.253 6.19849C392.84 6.19849 392.54 6.56811 392.597 7.03726Z" fill="#C7C7C7"/>
<path d="M389.519 7.03726C389.576 7.4922 389.947 7.87605 390.36 7.87605C390.773 7.87605 391.073 7.50641 391.016 7.03726C390.959 6.58233 390.588 6.19849 390.175 6.19849C389.762 6.19849 389.477 6.56811 389.519 7.03726Z" fill="white"/>
<path d="M386.455 7.03723C386.512 7.49217 386.883 7.87602 387.296 7.87602C387.709 7.87602 388.009 7.50638 387.952 7.03723C387.895 6.5823 387.524 6.19846 387.111 6.19846C386.697 6.19846 386.398 6.56808 386.455 7.03723Z" fill="#FFCC00"/>
</svg>
